<?xml version="1.0" encoding="UTF-8" standalone="no"?>
<!DOCTYPE svg PUBLIC "-//W3C//DTD SVG 1.1//EN" "http://www.w3.org/Graphics/SVG/1.1/DTD/svg11.dtd">
<svg width="100%" height="100%" viewBox="0 0 120 60" version="1.1" xmlns="http://www.w3.org/2000/svg" xmlns:xlink="http://www.w3.org/1999/xlink" xml:space="preserve" xmlns:serif="http://www.serif.com/" style="fill-rule:evenodd;clip-rule:evenodd;stroke-linejoin:round;stroke-miterlimit:2;">
    <g transform="matrix(1.21951,0,0,1.21951,-13.1707,-3.31463)">
        <g>
            <path d="M72.2,35.6L70.6,35.6C70.1,35.6 69.8,35.3 69.8,34.8L69.8,25.3C69.8,24.8 70.1,24.5 70.6,24.5L72.2,24.5C72.7,24.5 73,24.8 73,25.3L73,34.8C73,35.2 72.7,35.6 72.2,35.6ZM72.2,23.7L70.6,23.7C70.1,23.7 69.8,23.4 69.8,22.9L69.8,21.3C69.8,20.8 70.1,20.5 70.6,20.5L72.2,20.5C72.7,20.5 73,20.8 73,21.3L73,22.9C73,23.4 72.7,23.7 72.2,23.7ZM64.3,24.5C62.6,24.5 61.9,25.8 61.9,25.8L61.9,21.4C61.9,20.9 61.6,20.6 61.1,20.6L59.5,20.6C59,20.6 58.7,20.9 58.7,21.4L58.7,34.8C58.7,35.3 59,35.6 59.5,35.6L61.1,35.6C61.6,35.6 61.9,35.3 61.9,34.8L61.9,28.5C61.9,27.6 62.6,26.9 63.5,26.9C64.4,26.9 65.1,27.6 65.1,28.5L65.1,34.8C65.1,35.3 65.4,35.6 65.9,35.6L67.5,35.6C68,35.6 68.3,35.3 68.3,34.8L68.3,29.3C68.3,26.6 67.7,24.5 64.3,24.5ZM52.5,35.5C49.3,35.5 47.9,33.7 47.8,32.5C47.8,32.3 47.8,32.1 48,31.9C48.2,31.7 48.4,31.7 48.6,31.7L50.3,31.7C50.6,31.7 50.9,31.9 50.9,32.2C51.1,32.7 51.5,33.3 52.5,33.3C52.9,33.3 54.2,33.3 54.2,32.4C54.2,31.5 52.9,31.2 51.8,31C51.5,30.9 51.2,30.8 50.9,30.8L50.6,30.7C49.2,30.2 47.8,29.8 47.8,27.7C47.8,25.7 49.5,24.6 52.5,24.6C56.1,24.6 56.9,26.4 57.1,27.5C57.1,27.7 57.1,28 56.9,28.1C56.7,28.3 56.6,28.3 56.3,28.3L54.6,28.3C54.3,28.3 54,28.1 54,27.8C53.8,27.3 53.4,26.7 52.4,26.7C51.1,26.7 50.7,27.2 50.7,27.6C50.7,28.3 51.6,28.5 52.8,28.7C54.7,29.1 57.1,29.6 57.1,32.3C57.2,33.6 56.2,35.5 52.5,35.5ZM103.8,24.6C100.4,24.6 98.4,26.7 98.4,30C98.4,33.3 100.5,35.4 103.8,35.4C107.2,35.4 109.2,33.3 109.2,30C109.2,26.7 107.2,24.6 103.8,24.6ZM103.8,33.2C102.2,33.2 101.4,31.8 101.4,30C101.4,28.3 102.2,26.8 103.8,26.8C105.4,26.8 106.2,28.2 106.2,30C106.1,31.8 105.4,33.2 103.8,33.2ZM92.7,24.5C90.4,24.5 89.6,26.1 89.5,26.1L89.5,25.3C89.5,24.8 89.2,24.5 88.7,24.5L87.1,24.5C86.6,24.5 86.3,24.8 86.3,25.3L86.3,38.7C86.3,39.2 86.6,39.5 87.1,39.5L88.7,39.5C89.2,39.5 89.5,39.2 89.5,38.7L89.5,34C89.5,34 90.4,35.6 92.7,35.6C95.5,35.6 97.4,33.5 97.4,30.1C97.5,26.8 95.5,24.5 92.7,24.5ZM91.9,33.2C90.3,33.2 89.5,31.8 89.5,30C89.5,28.3 90.3,26.8 91.9,26.8C93.5,26.8 94.3,28.2 94.3,30C94.3,31.8 93.5,33.2 91.9,33.2ZM80.9,24.5C78.6,24.5 77.8,26.1 77.7,26.1L77.7,25.3C77.7,24.8 77.4,24.5 76.9,24.5L75.3,24.5C74.8,24.5 74.5,24.8 74.5,25.3L74.5,38.7C74.5,39.2 74.8,39.5 75.3,39.5L77,39.5C77.5,39.5 77.8,39.2 77.8,38.7L77.8,34C77.8,34 78.7,35.6 81,35.6C83.8,35.6 85.7,33.5 85.7,30.1C85.6,26.8 83.7,24.5 80.9,24.5ZM80.1,33.2C78.5,33.2 77.7,31.8 77.7,30C77.7,28.3 78.5,26.8 80.1,26.8C81.7,26.8 82.5,28.2 82.5,30C82.5,31.8 81.7,33.2 80.1,33.2ZM43,26.9C43,23.4 40.2,20.6 36.7,20.6C33.7,20.6 32.8,21.8 29.6,22.2C27.7,22.4 27.8,21.4 25.7,21.4C24.1,21.4 22.5,22.2 22.5,22.2C22.5,22.2 21,20.4 20.1,20.6C18.9,21 20.1,24.5 20.1,24.5C20.1,24.5 19.3,26.1 17.7,27.7C16.5,28.9 13.8,29.5 12.3,29.9C12.4,22.6 18.3,16.7 25.6,16.7C28.8,16.7 31.7,17.8 34,19.7C34.6,19.5 35.3,19.5 36,19.4C33.3,16.8 29.7,15.1 25.6,15.1C17.5,15.1 10.8,21.8 10.8,30C10.8,38.2 17.5,44.8 25.7,44.8C32.9,44.8 38.9,39.8 40.2,33C39.6,33.3 38.9,33.6 38.3,33.9C36.6,39.1 31.9,43 26.2,43.2C27,41.9 28.8,39.3 31.2,37C36.4,32.1 43,32.9 43,26.9ZM26.9,26.1C26.3,26.1 25.7,25.5 25.7,24.9C25.7,24.3 26.3,23.7 26.9,23.7C27.5,23.7 28.1,24.3 28.1,24.9C28.1,25.5 27.5,26.1 26.9,26.1Z" style="fill:rgb(59,71,79);fill-rule:nonzero;"/>
        </g>
    </g>
</svg>
