<?xml version="1.0" encoding="utf-8"?>
<svg width="375" viewBox="0 0 375 375" height="375" version="1.0" xmlns="http://www.w3.org/2000/svg">
  <defs>
    <clipPath id="a">
      <path d="M 67.390625 49.007812 L 206 49.007812 L 206 243 L 67.390625 243 Z M 67.390625 49.007812"/>
    </clipPath>
    <clipPath id="b">
      <path d="M 224 132 L 307.390625 132 L 307.390625 253 L 224 253 Z M 224 132"/>
    </clipPath>
    <clipPath id="c">
      <path d="M 168 233 L 234 233 L 234 325.757812 L 168 325.757812 Z M 168 233"/>
    </clipPath>
  </defs>
  <path fill="#FFF" d="M-37.5 -37.5H412.5V412.5H-37.5z" style="opacity: 0;"/>
  <path fill="#FFF" d="M-37.5 -37.5H412.5V412.5H-37.5z" style="opacity: 0;"/>
  <g clip-path="url(#a)">
    <path d="M 136.742188 61.109375 C 149.925781 76.578125 196.601562 133.832031 196.601562 169.195312 C 196.601562 198.605469 186.203125 233.664062 136.742188 233.664062 C 87.277344 233.664062 76.882812 198.605469 76.882812 169.195312 C 76.882812 133.832031 123.558594 76.578125 136.742188 61.109375 Z M 136.742188 242.871094 C 181.277344 242.871094 205.808594 216.699219 205.808594 169.195312 C 205.808594 124.710938 142.855469 53.984375 140.160156 51 C 138.414062 49.054688 135.070312 49.054688 133.324219 51 C 130.625 53.984375 67.675781 124.710938 67.675781 169.195312 C 67.675781 216.699219 92.207031 242.871094 136.742188 242.871094"/>
  </g>
  <g clip-path="url(#b)">
    <path d="M 265.667969 143.921875 C 274.550781 154.246094 297.898438 183.371094 297.898438 203.855469 C 297.898438 229.742188 287.050781 242.871094 265.667969 242.871094 C 244.28125 242.871094 233.4375 229.742188 233.4375 203.855469 C 233.4375 183.371094 256.78125 154.246094 265.667969 143.921875 Z M 265.667969 252.082031 C 292 252.082031 307.105469 234.507812 307.105469 203.855469 C 307.105469 175.078125 270.59375 135.488281 269.03125 133.832031 C 267.285156 131.941406 264.046875 131.941406 262.304688 133.832031 C 260.738281 135.488281 224.226562 175.078125 224.226562 203.855469 C 224.226562 234.507812 239.335938 252.082031 265.667969 252.082031"/>
  </g>
  <g clip-path="url(#c)">
    <path d="M 201.203125 316.550781 C 185.933594 316.550781 178.183594 307.25 178.183594 288.921875 C 178.183594 276.402344 192.589844 256.019531 201.203125 245.410156 C 209.820312 256.019531 224.226562 276.382812 224.226562 288.921875 C 224.226562 307.25 216.472656 316.550781 201.203125 316.550781 Z M 197.75 235.226562 C 196.582031 236.558594 168.972656 268.074219 168.972656 288.921875 C 168.972656 312.324219 180.71875 325.757812 201.203125 325.757812 C 221.691406 325.757812 233.4375 312.324219 233.4375 288.921875 C 233.4375 268.074219 205.828125 236.558594 204.65625 235.226562 C 202.894531 233.230469 199.511719 233.230469 197.75 235.226562"/>
  </g>
  <path d="M 127.082031 224.433594 C 127.226562 224.453125 127.386719 224.453125 127.53125 224.453125 C 129.871094 224.453125 131.886719 222.671875 132.117188 220.296875 C 132.371094 217.78125 130.519531 215.511719 127.980469 215.261719 C 117.226562 214.199219 108.953125 209.957031 103.394531 202.707031 C 91.144531 186.734375 95.191406 160.992188 95.230469 160.742188 C 95.660156 158.222656 93.953125 155.867188 91.453125 155.453125 C 88.953125 155.003906 86.558594 156.710938 86.164062 159.230469 C 85.949219 160.433594 81.378906 189.089844 96.054688 208.265625 C 103.234375 217.652344 113.664062 223.085938 127.082031 224.433594"/>
  <path d="M 261.0625 233.664062 C 261.65625 233.664062 275.453125 233.554688 283.582031 223.96875 C 288.527344 218.121094 290.234375 210.277344 288.617188 200.671875 C 288.222656 198.15625 285.828125 196.464844 283.328125 196.894531 C 280.8125 197.308594 279.121094 199.683594 279.550781 202.183594 C 280.683594 208.984375 279.679688 214.289062 276.585938 217.976562 C 271.277344 224.273438 261.242188 224.453125 261.042969 224.453125 C 258.507812 224.453125 256.457031 226.523438 256.457031 229.058594 C 256.457031 231.59375 258.527344 233.664062 261.0625 233.664062"/>
  <path d="M 198.667969 298.617188 C 197.464844 298.023438 193.757812 295.703125 196.113281 290.988281 C 197.246094 288.703125 196.328125 285.933594 194.0625 284.800781 C 191.78125 283.667969 189.007812 284.585938 187.875 286.851562 C 182.984375 296.636719 189.1875 304.175781 194.53125 306.855469 C 195.195312 307.179688 195.898438 307.339844 196.601562 307.339844 C 198.289062 307.339844 199.910156 306.40625 200.71875 304.804688 C 201.851562 302.519531 200.933594 299.75 198.667969 298.617188"/>
</svg>