<svg xmlns="http://www.w3.org/2000/svg" width="42" height="38" viewBox="0 0 42 38"><g><g><path fill="#231f20" d="M41.662 11.521c.01 7.851.01 15.702 0 23.553-.001 1.637-1.093 2.698-2.727 2.698-11.597.001-23.196.001-34.794-.003-.641 0-1.29.008-1.923-.079C.913 37.507.13 36.582.088 35.259c-.01-.335-.005-.67-.005-1.004-.001-7.543 0-15.085-.005-22.627 0-.966.243-1.817 1.086-2.382.61-.409 1.32-.478 2.035-.479 1.622-.003 3.244-.001 4.866-.001h.5v-.501c.003-1.544-.01-3.089.01-4.633.02-1.543.802-2.605 2.197-3.191a3.806 3.806 0 0 1 1.424-.275C17.783.152 23.37.154 28.956.178c.648.003 1.322.073 1.938.262 1.4.433 2.215 1.657 2.25 3.301.032 1.518.013 3.037.016 4.556v.469h.49c1.738 0 3.476-.003 5.214 0 1.706.004 2.796 1.052 2.798 2.755zm-11.731 9.24h-6.235v-6.236H18.05v6.236h-6.235v5.645h6.235v6.235h5.645v-6.235h6.235zm1.39-12.258c.004-1.57.016-3.141.004-4.71-.01-1.117-.67-1.765-1.782-1.795-.077-.002-.155-.001-.233-.001-5.624.004-11.25.008-16.874.014-.205 0-.413.01-.615.043-.814.132-1.362.64-1.386 1.464-.05 1.71-.024 3.422-.027 5.132 0 .023.02.046.045.092h20.85c.009-.113.019-.176.019-.239z"/></g></g></svg>