<svg xmlns="http://www.w3.org/2000/svg" width="44" height="38" viewBox="0 0 44 38"><g><g><path fill="#231f20" d="M2.93 11.622V9.558h37.673v2.023c-2.91.323-4.585 1.927-4.934 4.92H7.843c-.089-1.287-.5-2.467-1.449-3.407-.946-.937-2.093-1.424-3.464-1.472z"/></g><g><path fill="#231f20" d="M21.889 24.19c-4.878 0-9.755.004-14.633-.002-1.9-.001-3.325-1.378-3.35-3.204-.021-1.702 1.392-3.104 3.213-3.189.069-.003.138-.002.207-.002 9.669 0 19.338-.001 29.008.002 1.654 0 2.93.944 3.318 2.424.536 2.037-.923 3.965-3.027 3.969-4.912.009-9.824.003-14.736.003z"/></g><g><path fill="#231f20" d="M.476 3.838h42.721v4.227H.476z"/></g><g><path fill="#231f20" d="M.476.574h42.721v2.113H.476z"/></g><g><path fill="#231f20" d="M11.396 37.772v-6.505c0-.221-.005-.442.007-.662.058-1.042.757-1.819 1.731-1.93 1.014-.115 1.863.479 2.105 1.514.077.333.083.69.083 1.037l.001 6.546h4.67v-6.574c0-.276-.006-.555.036-.824.156-1.003.908-1.684 1.873-1.719.948-.035 1.765.614 1.963 1.598.064.319.052.658.053.987v6.532h4.674v-6.484c0-.311.004-.627.05-.933.144-.991.915-1.677 1.88-1.701a1.927 1.927 0 0 1 1.936 1.566c.066.337.06.695.06 1.042v6.51h3.661V26.179H7.494v11.593z"/></g></g></svg>