<svg xmlns="http://www.w3.org/2000/svg" width="46" height="38" viewBox="0 0 46 38"><g><g><path fill="#231f20" d="M45.356 19.722c.126.069.242.157.418.272-.205.16-.361.307-.54.416-1.18.725-2.485 1.14-3.803 1.516-2.54.724-5.143 1.125-7.754 1.475-2.156.289-4.316.543-6.483.718l6.049 8.452-2.995 2.444-7.174-10.023c-1.422 2.9-2.75 5.666-3.324 7.016-.754 1.769-1.472 3.554-2.2 5.334-.186.454-.354.532-.785.314-1.62-.821-3.24-1.641-4.858-2.464-.398-.201-.461-.4-.228-.781.79-1.297 1.625-2.57 2.376-3.888.655-1.15 1.97-3.616 3.374-6.267-2.33-.12-5.728-.446-6.706-.696.472-1.294.466-1.782-.044-3.286 2.593-.74 5.236-1.2 7.892-1.573l-5.713-7.983 2.996-2.445 5.769 8.06c.195-.362.364-.676.502-.927.7-1.281 1.33-2.6 2-3.897.33-.638.446-.685 1.148-.572.048.008.098.01.147.014l.095.008c.355-.896.78-1.771 1.048-2.693.466-1.611-.127-2.963-1.245-4.117-.607-.627-1.371-1.031-2.176-1.341-.967-.372-1.936-.164-2.875.11-.726.212-1.418.536-2.13.798-.137.05-.35.106-.432.04-.085-.07-.094-.291-.066-.431.14-.69.599-1.165 1.13-1.574C20.523.409 22.519-.161 24.704-.016c2.503.167 4.907.765 7.147 1.918.717.368 1.404.805 2.065 1.268.225.158.355.477.482.745.109.229.142.492.223.734.128.38.403.582.8.58.456-.003.933.055 1.173-.504.103-.238.344-.252.648-.1.723.364 1.444.732 2.165 1.098.265.133.53.265.792.402.344.18.413.378.24.724-.276.557-.56 1.11-.841 1.665l-1.621 3.194c-.221.437-.382.489-.823.266-.942-.476-1.884-.954-2.825-1.433-.46-.234-.506-.381-.273-.843.044-.088.076-.186.136-.263.28-.358.163-.652-.103-.965-.372-.435-.825-.61-1.387-.565-1.368.107-2.472.634-3.12 1.912l-1.311 2.585.28.245c.358.316.412.562.199.993-.402.814-.8 1.63-1.217 2.437-.242.469-.577 1.127-.972 1.909 2.99-.164 5.986-.201 8.988-.034 2.433.134 4.858.363 7.243.899.884.199 1.763.425 2.565.87zm-25.785.376l.012.083a.72.72 0 0 1 .02-.04l-.032-.043z"/></g><g><path fill="#231f20" d="M6.34 19.086c-1.237.556-2.438 1.196-3.629 1.844-.8.436-1.559.949-2.386 1.458 1.873.898 3.666 1.786 5.583 2.374.523.16 1.077.334 1.611.32 1.327-.034 2.285-.728 2.767-1.958.502-1.279.241-2.461-.758-3.412-.912-.868-2.017-1.153-3.189-.626z"/></g><g><path fill="#231f20" d="M30.542 35.414l1.558 2.287 3.193-2.342-1.557-2.289-3.194 2.344z"/></g><g><path fill="#231f20" d="M15.559 7.874l-4.334-2.713 1.339 5.157 2.995-2.444z"/></g></g></svg>