<?xml version="1.0" encoding="utf-8"?>
<svg width="375" viewBox="0 0 375 375" height="375" version="1.0" xmlns="http://www.w3.org/2000/svg">
  <defs>
    <clipPath id="a">
      <path d="M 33.699219 170 L 341.628906 170 L 341.628906 323.957031 L 33.699219 323.957031 Z M 33.699219 170"/>
    </clipPath>
  </defs>
  <path d="M-37.5 -37.5H412.5V412.5H-37.5z" style="fill: none; fill-rule: evenodd; opacity: 0;"/>
  <path fill="#FFF" d="M-37.5 -37.5H412.5V412.5H-37.5z" style="opacity: 0;"/>
  <g clip-path="url(#a)">
    <path fill="#100F0D" d="M 341.246094 171.40625 C 332.691406 168.015625 323.3125 172.910156 315.441406 177.613281 C 299.363281 187.238281 283.261719 196.863281 267.214844 206.488281 C 264.019531 208.375 262.980469 212.3125 264.371094 215.757812 C 268.910156 226.996094 263.089844 241.898438 252.617188 249.144531 C 240.261719 257.648438 224.160156 258.085938 209.234375 256.828125 C 196.875 255.789062 184.328125 253.765625 172.082031 255.023438 C 167.980469 255.433594 164.453125 252.125 164.453125 248.023438 L 164.453125 247.859375 C 164.453125 243.921875 167.625 240.75 171.5625 240.777344 L 231.839844 241.105469 C 237.910156 241.132812 243.898438 238.753906 247.804688 234.078125 C 255.242188 225.191406 248.84375 215.785156 240.890625 212.421875 C 235.285156 210.070312 229 210.070312 222.902344 210.125 C 205.488281 210.261719 185.3125 211.65625 167.488281 207.007812 C 148.242188 201.976562 133.535156 195.058594 113.332031 202.03125 C 95.371094 208.210938 80.363281 220.84375 67.269531 234.570312 L 35.832031 263.089844 C 33.234375 265.441406 32.960938 269.460938 35.257812 272.113281 L 77.875 321.714844 C 80.117188 324.3125 84 324.722656 86.734375 322.644531 L 129.378906 289.96875 C 132.824219 290.734375 136.433594 290.789062 139.988281 290.789062 C 170.167969 290.789062 200.347656 290.789062 230.554688 290.816406 C 234.875 290.816406 239.359375 290.789062 243.433594 289.3125 C 248.160156 287.5625 251.933594 284.035156 255.597656 280.589844 C 289.441406 248.542969 346.824219 183.875 341.246094 171.40625"/>
  </g>
  <path fill="#100F0D" d="M 199.144531 66.105469 L 192.285156 72.96875 L 185.421875 66.105469 C 178.039062 58.722656 168.226562 54.675781 157.8125 54.675781 C 147.367188 54.675781 137.554688 58.722656 130.171875 66.105469 C 114.945312 81.335938 114.945312 106.136719 130.171875 121.367188 L 191.683594 182.890625 L 192.285156 182.289062 L 192.886719 182.890625 L 254.367188 121.367188 C 269.621094 106.136719 269.621094 81.335938 254.367188 66.105469 C 239.140625 50.875 214.371094 50.875 199.144531 66.105469"/>
</svg>