<svg xmlns="http://www.w3.org/2000/svg" width="32" height="39" viewBox="0 0 32 39"><g><g><path fill="#231f20" d="M1.588 38.771c-1.316 0-1.476-.155-1.476-1.436 0-7.987.005-15.975-.01-23.963-.001-.585.15-1.04.538-1.485A217.146 217.146 0 0 0 4.815 6.97c.222-.269.328-.676.379-1.033.064-.449.015-.914.016-1.372C5.215 2.317 6.577.918 8.833.906c3.523-.018 7.046-.01 10.57-.002C20.75.907 22.107.86 23.447.98c1.646.147 2.817 1.468 2.934 3.115.015.205.044.416.012.616-.21 1.301.265 2.295 1.172 3.237 1.22 1.266 2.326 2.646 3.428 4.02.273.342.48.848.482 1.28.027 8.101.02 16.203.019 24.305 0 .967-.248 1.218-1.216 1.218-4.828.003-9.655.001-14.483.001H1.588zm.195-1.674h17.834V13.722H1.783zm28.039.01c.017-.167.04-.298.04-.43.004-7.686.005-15.37-.003-23.057 0-.215-.038-.483-.165-.637-1.34-1.619-2.7-3.22-4.102-4.884-1.311 1.555-2.608 3.058-3.854 4.601a1.987 1.987 0 0 0-.415 1.151c-.024 7.502-.018 15.005-.018 22.507v.748zm-5.06-31.129c0-.502.004-.955-.001-1.407-.017-1.4-.662-2.039-2.076-2.04-2.95-.003-5.898 0-8.847 0-1.715 0-3.43-.01-5.144.003-.972.007-1.73.586-1.81 1.433-.062.652-.012 1.314-.012 2.011z"/></g></g></svg>