<svg xmlns="http://www.w3.org/2000/svg" width="41" height="38" viewBox="0 0 41 38"><g><g><path fill="#231f20" d="M40.54 37.772H.883v-.437c0-7.696.001-15.391-.003-23.086-.001-.249.038-.43.268-.59C7.63 9.132 14.108 4.597 20.586.064c.032-.022.068-.041.132-.079.786.547 1.585 1.101 2.382 1.659 5.7 3.989 11.399 7.981 17.102 11.965.233.163.347.325.346.628-.01 7.709-.008 15.417-.008 23.125zm-19.699-15.46c3.435-.088 6.235-3.018 6.146-6.301-.099-3.635-2.997-6.336-6.482-6.246-3.354.087-6.178 3.018-6.069 6.247-.038 3.458 2.814 6.392 6.405 6.3zM5.117 27.743h5.634v-3.071H5.117zm14.164-3.05h-5.639v3.056h5.639zm8.515-.007H22.15v3.058h5.646zm8.519-.005h-5.639v3.067h5.639zM5.128 33.84h5.626v-3.064H5.128zm14.149-3.056h-5.639v3.07h5.639zm8.507-.006h-5.636v3.07h5.636zm2.875 3.067h5.649v-3.06h-5.649z"/></g><g><path fill="#231f20" d="M20.572 11.638c2.531-.075 4.654 1.918 4.717 4.432.066 2.56-1.892 4.609-4.372 4.713-2.602.108-4.706-1.89-4.779-4.482a4.575 4.575 0 0 1 4.434-4.663zm-3.782 4.566c.003 2.172 1.762 3.939 3.925 3.93a3.917 3.917 0 0 0 3.922-3.932c.004-2.154-1.77-3.917-3.924-3.915-2.157.002-3.927 1.769-3.923 3.917z"/></g><g><path fill="#231f20" d="M21.043 14.677c0 .452 0 .904.002 1.355a.273.273 0 0 0 .05.152c.498.699 1 1.396 1.501 2.093.13.18.104.383-.06.493a.32.32 0 0 1-.45-.081c-.205-.28-.405-.561-.606-.843-.333-.467-.666-.935-1-1.401a.47.47 0 0 1-.095-.286l.001-2.834c0-.26.152-.407.384-.375a.308.308 0 0 1 .262.258.954.954 0 0 1 .011.14v1.329z"/></g></g></svg>