<?xml version="1.0" encoding="utf-8"?>
<svg width="375" viewBox="0 0 375 375" height="375" version="1.0" xmlns="http://www.w3.org/2000/svg">
  <defs>
    <clipPath id="a">
      <path d="M 51.503906 42.542969 L 323.753906 42.542969 L 323.753906 332.792969 L 51.503906 332.792969 Z M 51.503906 42.542969"/>
    </clipPath>
  </defs>
  <path fill="#FFF" d="M-37.5 -37.5H412.5V412.5H-37.5z" style="opacity: 0;"/>
  <path fill="#FFF" d="M-37.5 -37.5H412.5V412.5H-37.5z" style="opacity: 0;"/>
  <path fill="#FFF" d="M-37.5 -37.5H412.5V412.5H-37.5z" style="opacity: 0;"/>
  <g clip-path="url(#a)">
    <path d="M 274.542969 311.417969 L 100.710938 311.417969 L 100.710938 126.9375 L 187.628906 69.292969 L 274.542969 126.9375 Z M 323.5 132.65625 L 187.628906 42.539062 L 51.757812 132.65625 L 66.601562 155.046875 L 79.78125 146.308594 L 79.78125 332.800781 L 295.472656 332.800781 L 295.472656 146.304688 L 308.65625 155.046875 L 323.5 132.65625"/>
  </g>
  <path d="M 221.578125 135.445312 C 221.578125 144.648438 214.117188 152.113281 204.910156 152.113281 C 195.707031 152.113281 188.246094 144.648438 188.246094 135.445312 C 188.246094 126.238281 195.707031 118.773438 204.910156 118.773438 C 214.117188 118.773438 221.578125 126.238281 221.578125 135.445312"/>
  <path d="M 180.804688 125.457031 C 180.804688 135.242188 172.875 143.175781 163.09375 143.175781 C 153.308594 143.175781 145.378906 135.242188 145.378906 125.457031 C 145.378906 115.667969 153.308594 107.738281 163.09375 107.738281 C 172.875 107.738281 180.804688 115.667969 180.804688 125.457031"/>
  <path d="M 184.421875 264.546875 L 181.714844 264.546875 L 181.714844 289.835938 C 181.714844 291.734375 180.683594 293.316406 179.210938 294.285156 L 189.640625 294.285156 C 188.164062 293.316406 187.132812 291.734375 187.132812 289.835938 L 187.132812 264.546875 L 184.421875 264.546875"/>
  <path d="M 184.421875 220.289062 C 175.445312 220.289062 168.167969 213.011719 168.167969 204.03125 C 168.167969 195.050781 175.445312 187.773438 184.421875 187.773438 C 193.402344 187.773438 200.675781 195.050781 200.675781 204.03125 C 200.675781 213.011719 193.402344 220.289062 184.421875 220.289062 Z M 249.992188 217.109375 L 226.816406 161.632812 C 226.550781 160.996094 226.175781 160.445312 225.757812 159.941406 L 225.777344 159.917969 L 225.707031 159.886719 C 224.429688 158.382812 222.570312 157.5 220.613281 157.5 L 220.609375 157.496094 L 204.910156 157.648438 L 194.242188 157.542969 C 190.480469 152.417969 184.460938 149.046875 177.628906 149.046875 L 170.265625 149.046875 C 169.769531 148.988281 169.277344 148.894531 168.761719 148.894531 L 156.765625 148.894531 C 156.253906 148.894531 155.761719 148.988281 155.261719 149.046875 L 148.558594 149.046875 C 137.167969 149.046875 127.898438 158.316406 127.898438 169.707031 L 127.898438 216.597656 C 127.898438 220.109375 130.746094 222.957031 134.253906 222.957031 C 137.765625 222.957031 140.613281 220.109375 140.613281 216.597656 L 140.613281 169.707031 C 140.613281 167.125 141.871094 164.84375 143.789062 163.390625 L 143.789062 287.132812 C 143.789062 291.085938 146.988281 294.285156 150.941406 294.285156 L 173.386719 294.285156 C 171.910156 293.316406 170.878906 291.734375 170.878906 289.835938 L 170.878906 235.519531 C 166.933594 241.554688 164.785156 251.027344 164.21875 255.179688 C 163.929688 257.289062 162.121094 258.824219 160.046875 258.824219 C 159.859375 258.824219 159.667969 258.8125 159.476562 258.785156 C 157.175781 258.472656 155.558594 256.355469 155.867188 254.046875 C 156.28125 250.980469 160.378906 224 176.644531 221.832031 C 176.929688 221.792969 177.214844 221.785156 177.492188 221.804688 L 177.652344 221.734375 L 191.195312 221.734375 L 191.359375 221.804688 C 191.632812 221.785156 191.917969 221.792969 192.203125 221.832031 C 208.46875 224 212.566406 250.980469 212.980469 254.046875 C 213.289062 256.355469 211.675781 258.476562 209.367188 258.789062 C 209.175781 258.816406 208.984375 258.828125 208.800781 258.828125 C 206.722656 258.828125 204.917969 257.289062 204.628906 255.179688 C 204.0625 251.027344 201.914062 241.554688 197.96875 235.519531 L 197.96875 264.546875 L 197.964844 264.546875 L 197.964844 289.835938 C 197.964844 291.734375 196.933594 293.316406 195.460938 294.285156 L 217.910156 294.285156 L 217.910156 293.785156 C 220.367188 292.78125 222.101562 290.375 222.101562 287.558594 L 222.101562 243.632812 L 236.308594 243.632812 L 217.910156 179.605469 L 215.703125 171.925781 L 216.257812 171.265625 L 237.574219 222.300781 C 238.652344 224.882812 241.152344 226.4375 243.785156 226.4375 C 244.648438 226.4375 245.527344 226.269531 246.375 225.914062 C 249.804688 224.480469 251.421875 220.542969 249.992188 217.109375"/>
</svg>