<svg xmlns="http://www.w3.org/2000/svg" width="29" height="38" viewBox="0 0 29 38"><g><g><path fill="#231f20" d="M.481 2.547c0-.306.001-.624.078-.917C.76.86 1.43.383 2.291.371c.878-.01.784-.003 1.662-.003h22.973c1.427 0 2.104.662 2.104 2.081v33.282c0 1.371-.676 2.04-2.05 2.04-9.122.002-17.273.001-24.45 0-1.4 0-2.05-.662-2.05-2.08C.475 30.142.476 24.595.476 19.048c0-5.5 0-11 .004-16.502zm22.757 9.008c.963 0 1.222-.264 1.222-1.243 0-.894.003-1.787 0-2.68-.005-.737-.336-1.068-1.078-1.068-3.882-.002-7.764-.002-11.645 0-.778 0-1.105.32-1.11 1.085a213.6 213.6 0 0 0 0 2.773c.003.841.3 1.132 1.152 1.132 1.91.002 3.82.001 5.73.001h5.73zM6.54.791H5.127v36.432H6.54z"/></g></g></svg>