<svg xmlns="http://www.w3.org/2000/svg" width="85" height="75" viewBox="0 0 85 75"><g><g><path fill="#d31418" d="M19.88 47.95c-1.521 0-2.881-.009-4.24.002-1.714.013-3.069.968-3.616 2.53-.573 1.635-.143 3.384 1.281 4.35.653.445 1.528.69 2.327.767 1.301.127 2.623.043 3.936.051.047 0 .094.036.263.104 0 1.043-.016 2.134.007 3.227.011.628.001 1.273.146 1.877.451 1.888 2.248 3.036 4.265 2.797 1.756-.21 3.207-1.783 3.254-3.603.039-1.437.008-2.877.008-4.42 1.487 0 2.895.01 4.305-.003 1.659-.015 3.03-.993 3.55-2.505.549-1.592.075-3.326-1.211-4.339-.747-.587-1.609-.85-2.565-.84-1.331.015-2.662.004-4.072.004 0-1.415.001-2.723-.002-4.028-.005-2.222-1.446-3.862-3.512-4.008-2.135-.15-3.921 1.34-4.101 3.575-.117 1.431-.023 2.88-.023 4.461zm22.286-36.528c-1.35-1.293-2.943-2.783-4.495-4.313C30.748.283 20.498-1.27 12.098 3.391 5.626 6.982 1.84 12.585.544 19.827c-1.133 6.34-.029 12.331 3.549 17.705 1.398 2.103 3.209 3.952 4.969 5.785 1.481 1.543 3.859 1.43 5.314-.044 1.54-1.558 1.497-3.773.033-5.448-1.552-1.776-3.23-3.504-4.438-5.504-4.504-7.452-2.037-17.387 5.31-22.024 5.201-3.282 12.237-2.627 16.662 1.75 3.213 3.176 6.224 6.56 9.324 9.851.338.357.676.718 1.064 1.13 1.307-1.386 2.563-2.72 3.826-4.05 2.191-2.306 4.255-4.754 6.607-6.88 6.386-5.784 15.538-4.825 20.788 2.04 4.894 6.402 4.461 15.47-1.06 21.348-9.107 9.696-18.235 19.372-27.354 29.055-.379.402-.742.818-1.124 1.217-1.067 1.115-2.302 1.114-3.362.011a417.71 417.71 0 0 0-3.075-3.168c-1.572-1.599-3.956-1.653-5.511-.135-1.538 1.503-1.535 3.933.023 5.512 1.313 1.328 2.588 2.698 3.976 3.942 1.936 1.734 4.286 2.378 6.856 2.227 2.713-.16 4.902-1.388 6.74-3.343 9.579-10.19 19.222-20.32 28.728-30.577 4.619-4.982 6.396-11.09 5.977-17.803-.374-5.966-2.668-11.155-6.94-15.377-8.526-8.42-21.881-8.4-30.448-.026-1.575 1.541-3.252 2.98-4.812 4.401z"/></g><g><path fill="#d31418" d="M42.166 11.422c-1.35-1.293-2.943-2.783-4.495-4.313C30.748.283 20.498-1.27 12.098 3.391 5.626 6.982 1.84 12.585.544 19.827c-1.133 6.34-.029 12.331 3.549 17.705 1.398 2.103 3.209 3.952 4.969 5.785 1.481 1.543 3.859 1.43 5.314-.044 1.54-1.558 1.497-3.773.033-5.448-1.552-1.776-3.23-3.504-4.438-5.504-4.504-7.452-2.037-17.387 5.31-22.024 5.201-3.282 12.237-2.627 16.662 1.75 3.213 3.176 6.224 6.56 9.324 9.851.338.357.676.718 1.064 1.13 1.307-1.386 2.563-2.72 3.826-4.05 2.191-2.306 4.255-4.754 6.607-6.88 6.386-5.784 15.538-4.825 20.788 2.04 4.894 6.402 4.461 15.47-1.06 21.348-9.107 9.696-18.235 19.372-27.354 29.055-.379.402-.742.818-1.124 1.217-1.067 1.115-2.302 1.114-3.362.011a417.71 417.71 0 0 0-3.075-3.168c-1.572-1.599-3.956-1.653-5.511-.135-1.538 1.503-1.535 3.933.023 5.512 1.313 1.328 2.588 2.698 3.976 3.942 1.936 1.734 4.286 2.378 6.856 2.227 2.713-.16 4.902-1.388 6.74-3.343 9.579-10.19 19.222-20.32 28.728-30.577 4.619-4.982 6.396-11.09 5.977-17.803-.374-5.966-2.668-11.155-6.94-15.377-8.526-8.42-21.881-8.4-30.448-.026-1.575 1.541-3.252 2.98-4.812 4.401z"/></g><g><path fill="#d31418" d="M19.88 47.95c-1.52 0-2.88-.009-4.24.001-1.714.015-3.069.97-3.617 2.531-.574 1.635-.142 3.384 1.281 4.35.654.446 1.528.688 2.328.766 1.301.128 2.623.044 3.936.052.047 0 .094.036.263.104 0 1.041-.016 2.134.005 3.227.013.628.003 1.273.148 1.877.451 1.886 2.248 3.036 4.263 2.796 1.758-.209 3.21-1.783 3.256-3.6.04-1.439.008-2.878.008-4.422 1.486 0 2.895.01 4.305-.003 1.657-.014 3.028-.992 3.55-2.505.548-1.592.075-3.325-1.212-4.339-.746-.587-1.609-.85-2.564-.839-1.33.015-2.663.003-4.074.003 0-1.415.003-2.722 0-4.03-.007-2.22-1.446-3.86-3.513-4.006-2.134-.15-3.92 1.34-4.102 3.575-.115 1.431-.02 2.88-.02 4.461z"/></g></g></svg>