<?xml version="1.0" encoding="utf-8"?>
<!-- Generator: Adobe Illustrator 22.0.0, SVG Export Plug-In . SVG Version: 6.00 Build 0)  -->
<svg version="1.1" id="Layer_1" xmlns="http://www.w3.org/2000/svg" xmlns:xlink="http://www.w3.org/1999/xlink" x="0px" y="0px"
	 width="333.5px" height="102.5px" viewBox="0 0 333.5 102.5" enable-background="new 0 0 333.5 102.5" xml:space="preserve">
<g>
	<path fill="#F64C43" d="M104.8,65.4h0.5c3.1,0.7,5.9,1.1,8.7,1.1c4.1,0,7.1-1,7.1-4.5c0-6.5-16.2-3.9-16.2-14.7c0-5.9,5.5-9,12.3-9
		c2.7,0,5.5,0.4,8,1.2v4.9h-0.5c-2.9-0.9-5.3-1.3-7.5-1.3c-3.3,0-6.7,0.7-6.7,4.2c0,6.2,16.2,3.7,16.2,14.2c0,7.6-6.1,9.9-12.9,9.9
		c-3.3,0-6.7-0.5-9-1V65.4z"/>
	<path fill="#F64C43" d="M181.2,70.1c-1.9,0.7-4,1.2-6.7,1.2c-3.3,0-8.4-0.7-8.4-8.3V43.9H162v-4.7h4.1v-7.5l4.7-1h0.5v8.5h10.3v4.7
		h-10.3V63c0,3.4,2.9,3.7,4.2,3.7c1.3,0,3.5-0.5,5.1-1L181.2,70.1z"/>
	<path fill="#F64C43" d="M200.7,65.4h0.5c3.1,0.7,5.9,1.1,8.7,1.1c4.1,0,7.1-1,7.1-4.5c0-6.5-16.2-3.9-16.2-14.7c0-5.9,5.5-9,12.3-9
		c2.7,0,5.5,0.4,8,1.2v4.9h-0.5c-2.9-0.9-5.3-1.3-7.5-1.3c-3.3,0-6.7,0.7-6.7,4.2c0,6.2,16.2,3.7,16.2,14.2c0,7.6-6.1,9.9-12.9,9.9
		c-3.3,0-6.7-0.5-9-1V65.4z"/>
	<path fill="#F64C43" d="M229.7,39.3l4.7-1h0.7v4.1c3.1-2.3,6.5-4.1,11.1-4.1c6.9,0,12.2,4.9,12.2,15.3c0,10.2-5.3,17.8-16.5,17.8
		c-2.6,0-4.7-0.3-6.9-0.8v15.5l-4.7,1h-0.7V39.3z M235.1,65.9c2.1,0.3,4.3,0.7,7.1,0.7c6.5,0,10.7-4.1,10.7-12.2
		c0-7.5-2.5-11.3-7.8-11.3c-3.1,0-6.6,1.3-9.9,4.3V65.9z"/>
	<path fill="#F64C43" d="M302.6,70.1l-10.7-30.9h6.1l7.5,24.3h0.5l8.3-24.3h6.1l-11.8,32.4c-2.8,8-6.3,11.9-12,15.5l-3-3.9
		c5.8-4.1,7.3-6.5,9.5-11.9"/>
	<path fill="#F64C43" d="M287.2,70.3l-4.3,0.9h-0.7v-4.4H282c-2.8,2.1-6.2,4.3-10.8,4.3c-4.1,0-8.3-2.9-8.3-8.7
		c0-7.7,6.9-8.8,10.7-9.3l8.3-1.1v-2.1c0-5.3-2.5-6.8-7.1-6.8c-1.7,0-6.1,0.5-9.6,2.1l-0.6-4.9c2.9-1.1,7.5-2,11.2-2
		c6.6,0,11.5,2.7,11.5,11.6V70.3z M281.9,56l-8.6,1.3c-2.3,0.3-4.8,1.3-4.8,4.9c0,2.6,1.8,4.4,4.5,4.4c2.9,0,6.3-1.9,8.9-3.7V56z"/>
	<path fill="#F64C43" d="M155.9,49.9c0-8.9-4.9-11.6-11.5-11.6c-3.7,0-8.3,0.9-11.2,2l0.6,4.9c3.5-1.6,7.9-2.1,9.6-2.1
		c4.6,0,7.1,1.5,7.1,6.8V52l-8.3,1.1c-3.7,0.5-10.7,1.6-10.7,9.3c0,5.7,4.3,8.7,8.3,8.7c4.6,0,8-2.2,10.8-4.3h0.1v4.4h0.7l4.3-0.9
		V49.9z M150.6,62.8c-2.6,1.9-5.9,3.7-8.9,3.7c-2.7,0-4.5-1.8-4.5-4.4c0-3.6,2.5-4.5,4.8-4.9l8.6-1.3V62.8z"/>
	<polygon fill="#F64C43" points="187.7,71.2 187.8,71.2 187.7,71.2 	"/>
	<polygon fill="#F64C43" points="192.4,38.3 187.7,39.3 187.7,67.6 187.7,71.2 187.8,71.2 188.4,71.2 193.1,70.2 193.1,68.6 
		193.1,38.3 	"/>
	<polygon fill="#F64C43" points="192.4,27.5 187.7,28.5 187.7,30.5 187.7,34.1 187.8,34.1 188.4,34.1 193.1,33.1 193.1,31.6 
		193.1,27.5 	"/>
	<path fill="#F64C43" d="M235.1,52.5c0,1.5-1.2,2.7-2.7,2.7c-1.5,0-2.7-1.2-2.7-2.7c0-1.5,1.2-2.7,2.7-2.7
		C233.9,49.8,235.1,51,235.1,52.5"/>
	<path fill="#F64C43" d="M72.1,17.4c0.7-0.7,0.2-1.9-0.8-1.9H54.6l9.7,9.7L72.1,17.4z"/>
	<path fill="#F64C43" d="M48.7,40.7L36.8,28.8L26,39.5L14.9,50.7c-0.4,0.4-0.4,1.2,0,1.6L26,63.4l10.7,10.7l11.9-11.9l-10-10
		L38,51.5l0.8-0.8L48.7,40.7z"/>
	<path fill="#F64C43" d="M64.3,77.8l-9.7,9.7h16.6c1,0,1.5-1.2,0.8-1.9L64.3,77.8z"/>
	<path fill="#F64C43" d="M86.2,50.7L75,39.5L62.5,27L51.3,15.8c-0.2-0.2-0.5-0.3-0.8-0.3c0,0,0,0,0,0H29.8c-1,0-1.5,1.2-0.8,1.9
		l9.6,9.6l11.9,11.9l11.8,11.8l0.8,0.8l-0.8,0.8L50.5,64L38.6,76L29,85.5c-0.7,0.7-0.2,1.9,0.8,1.9h20.7h0c0.3,0,0.6-0.1,0.8-0.3
		L62.5,76L75,63.4l11.1-11.1C86.6,51.8,86.6,51.1,86.2,50.7"/>
</g>
</svg>
