<?xml version="1.0" encoding="utf-8"?>
<svg width="375" viewBox="0 0 375 375" height="375" version="1.0" xmlns="http://www.w3.org/2000/svg">
  <defs>
    <clipPath id="a">
      <path d="M 96.195312 53.855469 L 278.445312 53.855469 L 278.445312 320.855469 L 96.195312 320.855469 Z M 96.195312 53.855469"/>
    </clipPath>
  </defs>
  <path fill="#FFF" d="M-37.5 -37.5H412.5V412.5H-37.5z" style="opacity: 0;"/>
  <path fill="#FFF" d="M-37.5 -37.5H412.5V412.5H-37.5z" style="opacity: 0;"/>
  <g clip-path="url(#a)">
    <path d="M 278.367188 141.65625 C 278.398438 141.238281 278.4375 140.726562 278.4375 140.15625 C 278.4375 92.570312 237.5625 53.855469 187.320312 53.855469 C 137.078125 53.855469 96.203125 92.570312 96.203125 140.15625 C 96.203125 140.753906 96.238281 141.277344 96.277344 141.742188 C 96.289062 141.914062 96.304688 142.078125 96.316406 142.25 C 95.242188 168.203125 104.035156 192.863281 121.742188 213.574219 C 131.730469 225.257812 141.863281 232.597656 146.566406 235.683594 L 146.566406 250.117188 C 141.527344 252.710938 138.0625 257.972656 138.0625 264.027344 C 138.0625 272.023438 144.085938 278.628906 151.835938 279.550781 C 151.339844 281.058594 151.066406 282.664062 151.066406 284.332031 L 151.066406 284.914062 C 151.066406 293.179688 157.628906 299.933594 165.8125 300.242188 C 165.289062 301.808594 164.996094 303.472656 164.996094 305.214844 C 164.996094 313.839844 172 320.851562 180.617188 320.851562 L 197.082031 320.851562 C 205.695312 320.851562 212.703125 313.839844 212.703125 305.214844 C 212.703125 303.480469 212.417969 301.808594 211.890625 300.242188 C 220.074219 299.933594 226.636719 293.179688 226.636719 284.914062 L 226.636719 284.332031 C 226.636719 282.660156 226.363281 281.058594 225.867188 279.550781 C 233.609375 278.632812 239.636719 272.023438 239.636719 264.027344 C 239.636719 256.8125 234.734375 250.730469 228.085938 248.933594 L 228.085938 235.683594 C 232.792969 232.589844 242.925781 225.253906 252.910156 213.570312 C 270.628906 192.839844 279.417969 168.167969 278.339844 142.199219 C 278.339844 142.023438 278.355469 141.839844 278.367188 141.65625 Z M 197.078125 310.175781 L 180.613281 310.175781 C 177.882812 310.175781 175.660156 307.953125 175.660156 305.21875 C 175.660156 302.488281 177.882812 300.265625 180.613281 300.265625 L 197.078125 300.265625 C 199.808594 300.265625 202.027344 302.488281 202.027344 305.21875 C 202.027344 307.953125 199.808594 310.175781 197.078125 310.175781 Z M 215.960938 284.917969 C 215.960938 287.449219 213.824219 289.585938 211.296875 289.585938 L 166.394531 289.585938 C 163.824219 289.585938 161.730469 287.492188 161.730469 284.917969 L 161.730469 284.335938 C 161.730469 281.761719 163.824219 279.667969 166.394531 279.667969 L 211.296875 279.667969 C 213.867188 279.667969 215.960938 281.761719 215.960938 284.335938 Z M 224.011719 268.988281 L 153.679688 268.988281 C 150.949219 268.988281 148.730469 266.765625 148.730469 264.035156 C 148.730469 261.300781 150.949219 259.078125 153.679688 259.078125 L 224.011719 259.078125 C 226.742188 259.078125 228.960938 261.300781 228.960938 264.035156 C 228.960938 266.765625 226.742188 268.988281 224.011719 268.988281 Z M 167.210938 182.867188 L 165.976562 182.867188 C 165.253906 182.867188 164.746094 182.410156 164.746094 182 L 164.746094 181.609375 C 164.746094 181.199219 165.253906 180.746094 165.976562 180.746094 C 166.703125 180.746094 167.210938 181.199219 167.210938 181.609375 Z M 197.164062 248.398438 L 177.882812 248.398438 L 177.882812 193.546875 L 197.164062 193.546875 Z M 267.664062 142.484375 C 268.683594 165.976562 261.070312 187.464844 245.039062 206.34375 C 232.898438 220.644531 220.222656 228.015625 220.101562 228.078125 C 218.433594 229.03125 217.40625 230.800781 217.40625 232.71875 L 217.40625 248.390625 L 207.828125 248.390625 L 207.828125 193.546875 L 208.851562 193.546875 C 215.304688 193.546875 220.546875 188.449219 220.546875 182.191406 L 220.546875 181.417969 C 220.546875 175.160156 215.304688 170.066406 208.851562 170.066406 C 202.402344 170.066406 197.15625 175.160156 197.15625 181.417969 L 197.15625 182.867188 L 177.875 182.867188 L 177.875 181.609375 C 177.875 175.246094 172.535156 170.066406 165.972656 170.066406 C 159.410156 170.066406 154.070312 175.246094 154.070312 181.609375 L 154.070312 182 C 154.070312 188.367188 159.410156 193.546875 165.972656 193.546875 L 167.207031 193.546875 L 167.207031 248.398438 L 157.226562 248.398438 L 157.226562 232.726562 C 157.226562 230.8125 156.199219 229.039062 154.539062 228.089844 C 154.410156 228.015625 141.738281 220.652344 129.597656 206.351562 C 113.5625 187.464844 105.949219 165.976562 106.976562 142.484375 C 106.980469 142.351562 106.980469 142.222656 106.976562 142.089844 C 106.964844 141.703125 106.9375 141.324219 106.910156 140.945312 C 106.890625 140.632812 106.867188 140.355469 106.867188 140.152344 C 106.875 98.460938 142.960938 64.535156 187.320312 64.535156 C 231.675781 64.535156 267.765625 98.460938 267.765625 140.15625 C 267.765625 140.335938 267.746094 140.597656 267.726562 140.882812 C 267.703125 141.261719 267.667969 141.6875 267.664062 142.179688 C 267.660156 142.28125 267.660156 142.382812 267.664062 142.484375 Z M 207.832031 182.867188 L 207.832031 181.417969 C 207.832031 181.144531 208.234375 180.746094 208.859375 180.746094 C 209.484375 180.746094 209.882812 181.144531 209.882812 181.417969 L 209.882812 182.191406 C 209.882812 182.464844 209.484375 182.867188 208.859375 182.867188 Z M 254 111.769531 C 255.398438 114.363281 254.425781 117.605469 251.828125 119 C 251.023438 119.429688 250.160156 119.640625 249.304688 119.640625 C 247.40625 119.640625 245.566406 118.621094 244.605469 116.832031 C 237.460938 103.542969 225.648438 92.722656 211.34375 86.359375 C 208.648438 85.164062 207.4375 82.007812 208.632812 79.3125 C 209.828125 76.617188 212.984375 75.402344 215.675781 76.597656 C 232.132812 83.921875 245.742188 96.410156 254 111.769531 Z M 254 111.769531"/>
  </g>
</svg>