<svg xmlns="http://www.w3.org/2000/svg" width="40" height="38" viewBox="0 0 40 38"><g><g><path fill="#231f20" d="M4.109 20.252H1.645c-.696-.001-1.02-.313-1.026-1-.005-.504.007-1.008-.004-1.512-.007-.357.12-.631.39-.87C5.87 12.58 10.73 8.284 15.59 3.99c1.344-1.188 2.686-2.378 4.03-3.564.492-.434.907-.429 1.4.007C27.207 5.9 33.39 11.367 39.58 16.83c.3.265.455.557.443.96-.017.514.003 1.031-.008 1.546-.012.576-.357.912-.928.915-.834.004-1.668.001-2.56.001V36.582c0 .887-.303 1.19-1.195 1.19H24.127c-.89 0-1.176-.282-1.177-1.16v-7.407c0-1.079-.41-1.947-1.36-2.488-1.73-.985-3.894.285-3.901 2.282-.01 2.53-.002 5.061-.003 7.592 0 .9-.285 1.181-1.195 1.182H5.286c-.871 0-1.177-.304-1.177-1.168V20.793z"/></g></g></svg>