<svg xmlns="http://www.w3.org/2000/svg" width="54" height="30" viewBox="0 0 54 30"><g><g><path fill="#231f20" d="M.114 28.457c.234 0 .417-.003.6 0 3.52.077 3.949-.15 7.469.086 4.588.307 9.176.622 13.765.909.435.026.91-.048 1.314-.207 2.4-.952 4.785-1.94 7.17-2.922 1.723-.708 3.485-1.34 5.144-2.168 1.712-.856 3.324-1.906 4.973-2.882.633-.376.97-.962 1.087-1.672.124-.755-.243-1.233-1.018-1.181a6.433 6.433 0 0 0-1.806.392c-2.364.886-4.706 1.83-7.066 2.728a5.364 5.364 0 0 1-2.626.325c-2.523-.332-5.043-.685-7.564-1.032-.082-.011-.161-.05-.341-.106.274-.065.436-.111.6-.142 2.71-.5 5.42-.985 8.124-1.512.348-.067.739-.271.96-.535.736-.871.16-2.17-1.046-2.31-1.135-.13-2.285-.165-3.43-.186a822.496 822.496 0 0 0-10.653-.132c-1.202-.005-2.42.08-3.461.793a65.04 65.04 0 0 0-2.816 2.01c-.387.296-.75.457-1.252.454-3.581-.021-4.066-.011-7.648-.011h-.48z"/></g><g><path fill="#231f20" d="M.114 28.457v-9.301h.479c3.582 0 4.067-.01 7.648.01.503.004.865-.157 1.252-.452a65.04 65.04 0 0 1 2.816-2.011c1.042-.713 2.259-.798 3.46-.793 3.553.016 7.104.07 10.655.132 1.144.02 2.294.057 3.429.187 1.206.139 1.782 1.438 1.047 2.309-.222.264-.613.468-.961.535-2.703.527-5.414 1.012-8.123 1.512-.165.03-.327.077-.601.142.18.057.259.095.34.106 2.522.347 5.042.7 7.565 1.032a5.364 5.364 0 0 0 2.626-.325c2.36-.897 4.702-1.842 7.066-2.728a6.433 6.433 0 0 1 1.806-.392c.775-.052 1.142.426 1.018 1.18-.116.71-.454 1.297-1.087 1.673-1.65.976-3.261 2.026-4.973 2.882-1.66.829-3.421 1.46-5.143 2.168-2.386.983-4.771 1.97-7.171 2.922a3.177 3.177 0 0 1-1.314.207c-4.59-.287-9.177-.602-13.765-.91-3.52-.235-3.948-.008-7.47-.085-.182-.003-.365 0-.6 0z"/></g><g><path fill="#231f20" d="M53.808 1.3c-.235 0-.418.003-.601 0-3.52-.076-4.722.15-8.242-.085C40.375.907 35.788.592 31.2.305a3.182 3.182 0 0 0-1.315.207c-2.4.953-4.784 1.94-7.171 2.922-1.721.71-3.483 1.34-5.142 2.168-1.712.856-3.325 1.906-4.973 2.883-.634.375-.972.961-1.088 1.671-.124.755.243 1.233 1.019 1.181a6.452 6.452 0 0 0 1.805-.39c2.365-.888 4.706-1.832 7.067-2.73a5.364 5.364 0 0 1 2.626-.325c2.522.332 5.043.685 7.564 1.032.082.011.16.05.34.106-.273.065-.436.111-.601.142-2.71.5-5.42.985-8.123 1.512-.346.067-.74.272-.961.535-.735.871-.16 2.17 1.047 2.31 1.135.13 2.285.166 3.43.186 3.55.062 7.102.116 10.653.132 1.202.005 2.419-.08 3.46-.793a65.923 65.923 0 0 0 2.818-2.01c.386-.296.749-.457 1.252-.454 3.58.021 4.84.011 8.422.011h.479z"/></g><g><path fill="#231f20" d="M53.808 1.3v9.301h-.48c-3.581 0-4.84.01-8.421-.01-.503-.004-.866.157-1.252.453-.915.7-1.865 1.358-2.817 2.01-1.042.713-2.26.798-3.461.793-3.551-.016-7.102-.07-10.653-.132-1.145-.02-2.295-.056-3.43-.187-1.206-.139-1.782-1.438-1.047-2.309.222-.263.615-.468.96-.535 2.705-.527 5.415-1.012 8.124-1.512.165-.03.328-.077.602-.142-.181-.057-.26-.095-.341-.106-2.521-.347-5.042-.7-7.564-1.032a5.364 5.364 0 0 0-2.626.325c-2.361.898-4.702 1.842-7.067 2.73a6.452 6.452 0 0 1-1.805.39c-.776.052-1.143-.426-1.02-1.18.117-.71.455-1.297 1.089-1.672 1.648-.977 3.26-2.027 4.973-2.883 1.659-.829 3.42-1.459 5.142-2.168 2.387-.983 4.772-1.969 7.17-2.922.404-.159.88-.233 1.316-.207 4.588.287 9.176.602 13.765.91 3.52.235 4.722.01 8.242.085.183.003.366 0 .6 0z"/></g></g></svg>