<svg xmlns="http://www.w3.org/2000/svg" width="32" height="46" viewBox="0 0 32 46"><g><g><path d="M7 22.764V2.577c.002-1.57 1.122-2.611 2.587-2.42.992.128 1.793.94 1.898 1.933.026.24.039.486.039.729.002 13.29 0 26.58.007 39.87 0 1.03-.26 1.89-1.246 2.396-1.426.732-3.14-.216-3.274-1.814-.016-.197-.012-.396-.012-.594V22.764z"/></g><g><path d="M25.094 22.73c0 6.715-.003 13.429.003 20.143.001 1.065-.422 1.84-1.406 2.294-1.269.583-2.907-.322-3.079-1.713a6.258 6.258 0 0 1-.042-.775c-.002-13.32-.002-26.642-.002-39.964 0-1.25.494-2.07 1.463-2.439a2.247 2.247 0 0 1 3.024 1.766c.04.24.038.485.038.728l.001 19.96z"/></g><g><path d="M4.732 22.734c0 4.46.003 8.92 0 13.38-.003 1.5-1.008 2.506-2.405 2.433A2.242 2.242 0 0 1 .235 36.5a5.65 5.65 0 0 1-.013-.412C.222 27.17.22 18.25.223 9.33c0-1.445.983-2.452 2.334-2.413 1.154.033 2.132.963 2.16 2.118.032 1.354.015 2.71.015 4.064v9.635z"/></g><g><path d="M31.872 22.73c0 4.46.003 8.92-.002 13.38 0 1.501-1.003 2.51-2.399 2.436a2.24 2.24 0 0 1-2.096-2.043 5.606 5.606 0 0 1-.013-.41c0-8.92-.002-17.84 0-26.759.001-1.447.98-2.455 2.331-2.417 1.155.031 2.133.96 2.163 2.114.033 1.232.015 2.466.016 3.7v10z"/></g><g><path d="M18.317 22.73c0 2.938.003 5.876-.002 8.813-.002 1.349-.714 2.25-1.914 2.457-1.172.2-2.32-.578-2.554-1.743a3.445 3.445 0 0 1-.068-.68c-.004-5.891-.005-11.782 0-17.672 0-1.333.732-2.24 1.934-2.44 1.164-.192 2.324.613 2.535 1.773.05.267.066.544.066.816.004 2.893.003 5.785.003 8.677z"/></g></g></svg>