<?xml version="1.0" encoding="utf-8"?>
<!-- Generator: Adobe Illustrator 15.0.0, SVG Export Plug-In . SVG Version: 6.00 Build 0)  -->
<!DOCTYPE svg PUBLIC "-//W3C//DTD SVG 1.1//EN" "http://www.w3.org/Graphics/SVG/1.1/DTD/svg11.dtd">
<svg version="1.1" id="Livello_1" xmlns="http://www.w3.org/2000/svg" xmlns:xlink="http://www.w3.org/1999/xlink" x="0px" y="0px"
	 width="1563.156px" height="841.89px" viewBox="0 0 1563.156 841.89" enable-background="new 0 0 1563.156 841.89"
	 xml:space="preserve">
<g>
	<g>
		<g>
			<path fill="#B3232C" d="M399.142,570.252c1.74-2.125,3.774-3.418,6.099-3.891c0.575-0.465,1.16-0.709,1.75-0.709
				c0.568,0,1.154,0,1.741,0c4.057,0,8.563,0.709,13.511,2.125c4.932,1.414,10.027,2.83,15.259,4.246
				c5.802,1.891,12.055,3.541,18.743,4.959c6.676,1.414,14.083,2.123,22.229,2.123c15.108,0,27.466-4.127,37.054-12.389
				c9.591-8.256,16.332-13.994,16.916-23.908c0-0.465,0-0.816,0-1.064c0-0.227,0-0.584,0-1.059c0-14.158,0.81-31.857-10.813-53.096
				c-11.635-21.24-27.437-47.977-40.803-70.168c-13.947-22.652-28.395-44.479-40.015-65.486
				c-11.634-20.999-17.436-35.231-17.436-49.392c0-6.605-0.7-14.007,4.528-25.58c5.234-11.562,12.497-23.475,21.801-35.75
				c13.363-17.934,29.926-34.45,49.693-49.563c19.75-15.098,40.674-26.006,62.772-26.006c3.483,0,8.13,0.241,13.946,0.708
				c5.803,0.477,11.904,1.181,18.307,2.123c9.289,1.893,17.872,4.248,25.719,7.08s11.77,6.371,11.77,10.619
				c0,8.972-5.49,8.281-9.85,11.348c-4.359,3.072-14.685,4.84-30.953,5.307c-38.356,0.476-65.973,7.681-82.821,21.598
				c-16.863,13.926-25.282,30.562-25.282,49.912c0,12.275,3.272,37.793,13.161,56.432c9.881,18.646,27.553,45.293,39.759,66.532
				c4.646,9.45,9.591,19.119,14.82,29.03c5.232,9.912,8.218,14.559,12.294,23.992c5.229,12.742,9.588,20.346,13.077,32.85
				c3.485,12.506,5.229,24.666,5.229,36.459c0,3.307-1.169,10.156-3.484,20.531c-2.331,10.387-6.69,21.482-13.078,33.277
				c-7.561,13.691-18.172,26.195-31.822,37.523c-13.664,11.326-31.822,16.99-54.49,16.99c-4.071,0-9.152-0.479-15.254-1.416
				c-6.104-0.953-12.357-2.121-18.742-3.541c-6.405-1.896-12.645-3.785-18.748-5.662c-6.104-1.893-11.197-4.016-15.257-6.371
				c-1.741-0.955-3.351-1.893-4.795-2.83c-1.456-0.943-2.479-1.885-3.051-2.836c-0.586-1.418-1.174-2.832-1.745-4.246
				c-0.585-1.416-1.172-2.834-1.74-4.25c-0.589-2.83-1.174-5.662-1.743-8.498c-0.589-2.828-0.875-5.66-0.875-8.494
				C396.523,575.564,397.398,572.375,399.142,570.252z"/>
		</g>
		<g>
			<path fill="#B3232C" d="M218.372,479.041c-16.569,0-28.996,2.1-37.271,6.287c-8.286,4.197-15.48,11.811-21.578,22.83
				l-32.692,57.574c-0.438,0.891-0.878,1.768-1.309,2.648c-0.438,0.889-0.653,1.984-0.653,3.307
				c-0.438,0.445-0.652,0.891-0.652,1.322c0,0.447,0,0.891,0,1.328c-0.88,2.645-1.861,5.074-2.945,7.277
				c-1.092,2.213-3.82,3.309-8.174,3.309c-12.206,0-22.017-1.43-29.422-4.303c-7.419-2.861-11.115-6.502-11.115-10.92
				c0-3.969,2.174-8.273,6.536-12.902c4.353-4.631,9.371-10.475,15.041-17.539c6.968-9.262,14.813-20.182,23.539-32.756
				c8.716-12.572,17.429-25.912,26.154-40.035c3.045-4.406,5.987-8.934,8.827-13.564c2.83-4.635,5.771-9.369,8.827-14.229
				c17-27.793,31.813-53.933,44.464-78.418c12.636-24.485,18.959-40.253,18.959-47.316c0-4.85-1.857-10.144-5.556-15.882
				c-3.709-5.728-9.265-12.347-16.673-19.853l-53.619-54.926c-4.36-4.404-8.283-7.94-11.768-10.588
				c-3.494-2.647-6.112-4.85-7.849-6.619c-0.875-0.878-1.531-1.757-1.958-2.646c-0.444-0.879-0.655-1.986-0.655-3.311
				c0-1.321,0.869-2.864,2.613-4.632c1.736-1.759,4.141-3.524,7.192-5.294c1.738-1.322,3.813-2.535,6.214-3.639
				c2.389-1.098,4.681-2.317,6.864-3.639c3.484-1.326,6.866-2.535,10.136-3.641c3.27-1.098,5.988-1.655,8.174-1.655
				c9.585,0,16.347,0.661,20.27,1.985c3.923,1.323,7.407,5.078,10.461,11.251c0.431,1.323,0.981,2.76,1.635,4.301
				c0.656,1.553,1.413,3.425,2.29,5.622c0.867,2.213,2.718,5.523,5.557,9.928c2.83,4.417,6.211,9.049,10.136,13.897
				c0.87,0.892,1.636,1.768,2.29,2.648c0.653,0.888,1.408,1.768,2.288,2.646c0.427,0.443,0.754,0.892,0.979,1.323
				c0.213,0.444,0.54,0.892,0.979,1.325c49.256,60.004,89.47,107.316,120.642,141.947c31.16,34.637,60.481,65.408,87.943,92.314
				c3.925,3.537,7.846,7.176,11.771,10.918c3.923,3.754,7.846,7.395,11.769,10.922c8.715,7.939,17.544,15.996,26.48,24.152
				c8.933,8.17,18.197,16.658,27.788,25.48c3.925,3.535,7.85,6.066,11.772,7.607c3.921,1.549,7.407,2.762,10.462,3.639
				c3.045,0.891,5.445,1.986,7.193,3.309c1.736,1.326,2.612,4.199,2.612,8.605c0,1.322-0.876,3.309-2.612,5.955
				c-1.748,2.645-3.927,5.293-6.54,7.943c-1.307,1.768-2.729,3.307-4.249,4.629c-1.533,1.326-3.168,2.648-4.904,3.969
				c-2.615,1.768-5.129,3.311-7.52,4.635c-2.4,1.322-4.475,1.986-6.215,1.986l-19.614,0.664c-2.612-0.447-4.576-1.443-5.882-2.982
				c-1.311-1.549-2.402-3.41-3.271-5.623c-0.439,0-0.652-0.217-0.652-0.662c-0.441-0.879-0.881-1.656-1.308-2.314
				c-0.44-0.664-0.882-1.428-1.31-2.318c-6.98-10.143-17.878-23.16-32.693-39.041c-14.826-15.885-33.134-35.293-54.924-58.238
				H218.372z M256.297,337.426l-43.154,75.439c-5.673,9.71-9.38,16.216-11.118,19.521c-1.745,3.313-2.613,6.07-2.613,8.275
				c0,3.533,3.269,5.736,9.806,6.617c6.539,0.885,25.279,1.322,56.233,1.322c34.432,0,57.869-0.549,70.292-1.654
				c12.421-1.096,20.157-2.316,23.211-3.639L256.297,337.426z"/>
		</g>
		<g>
			<path fill="#B3232C" d="M640.598,92.977c-120.512-1.603-290.025,8.176-418.838,2.254c-17.754-0.818-49.144-10.396-69.066-4.512
				c-16.52,4.881-24.963,25.801-15.222,43.613c1.655,2.139,3.321,4.18,4.728,6.03c63.576,4.145,144.752-4.838,211.004,2.217
				c2.313,29.597,4.269,60.815,5.492,92.608c0.226,5.173,0.409,10.346,0.535,15.521c1.33,43.725,1.158,88.226-1.572,130.875
				c-0.01-0.014-0.023-0.025-0.037-0.039c-0.269,4.582-0.568,9.017-0.898,13.29c-1.834,23.599-1.823,43.461-3.279,59.596
				c-1.098,8.076-2.152,15.371-3.157,21.887c0.229-0.012,0.459-0.02,0.687-0.033c-2.934,11.543-4.436,22.418-4.788,32.619
				c0.035,2.531,0.14,4.865,0.14,7.17c0,3.104,1.083,26.852,11.973,50.361c8.091,15.938,19.259,28.082,30.551,36.115
				c3.275,2.328,6.914,4.547,10.823,6.643c21.943,11.357,47.72,18.254,76.59,18.254c4.389,0,9.137-0.322,14.263-0.932
				c1.555-0.191,2.786-0.25,3.916-0.281c7.539-1.129,14.758-2.967,21.396-5.646c13.826-5.578,27.663-17.631,38.968-32.977
				c0.798-1.168,1.558-2.324,2.247-3.445c1.983-3.225-4.75-10.289-6.204-12.775c-1.477-2.477-4.032-3.725-7.679-3.725
				c-2.198,0-4.77,0.158-7.684,0.463c-2.933,0.32-6.225,0.469-9.873,0.469c0,0.623-0.19,0.93-0.55,0.93c-0.377,0-0.923,0-1.645,0
				c-2.933,0-14.148,8.545-17.063,8.85c-2.932,0.32-10.459,0.465-12.651,0.465c-32.845,0-54.799-9.582-68.569-23.279
				c-4.872-4.57-9.024-9.871-12.401-15.955c-4.143-7.043-6.578-14.098-8.028-21.895c-1.936-8.932-2.804-18.949-2.488-30.156
				c0.105,0.105,0.211,0.211,0.319,0.314c-1.706-24.023-2.297-47.275-2.233-69.42c-1.809-16.783,0.261-39.579,1.424-57.556
				c0.412-9.508,0.873-18.677,1.334-27.488c0.733-16.301,1.49-32.519,2.375-48.549c1.944-51.669,9.146-111.654,16.414-147.405
				c1.06,0,2.276,0.099,3.567,0.234C502.07,128.908,627.811,158.693,640.598,92.977z"/>
		</g>
		<g>
			<path fill="#9D9D9C" d="M557.008,217.499c18.131,0,36.275,0.024,54.408-0.01c0.072,4.488,0.034,8.974,0.059,13.463
				c-6.992,0.039-13.971,0.072-20.95-0.025c-0.177,19.825-0.028,39.661-0.078,59.496c19.679,0.016,39.348,0.033,59.025-0.008
				c0.085-7.084-0.169-14.187,0.124-21.276c4.377,0.11,8.756,0.032,13.143,0.071c0.009,18.33,0.018,36.667-0.006,55.002
				c-4.425-0.009-8.858,0.032-13.286-0.037c0.078-6.977-0.055-13.955,0.085-20.932c-19.659-0.323-39.338,0.032-59.007-0.175
				c-0.177,19.993-0.028,39.996-0.068,59.989c7.001,0.016,14.005-0.021,21.019,0.016c-0.024,4.478-0.024,8.953,0.005,13.433
				c-18.172,0.022-36.354,0.101-54.527-0.043c0.071-4.453,0.063-8.901,0.009-13.349c6.957-0.137,13.92,0.005,20.876-0.078
				c-0.063-19.979,0.03-39.957-0.048-59.934c-19.491,0.037-38.972,0.023-58.459,0.008c-0.063,7.031-0.006,14.063-0.031,21.093
				c-4.427,0.009-8.861,0.024-13.285-0.012c0.007-18.31,0.055-36.612-0.023-54.917c4.435-0.143,8.875-0.069,13.309-0.057
				c0,7.065,0.019,14.12-0.008,21.184c19.513,0.062,39.033,0.055,58.546,0c-0.063-19.813,0.039-39.632-0.048-59.442
				c-6.886,0.08-13.779-0.069-20.664,0.087C556.867,226.534,557.032,222.007,557.008,217.499z"/>
			<path fill="#9D9D9C" d="M541.216,240.235c4.944-0.105,9.886-0.047,14.826-0.056c-0.898,5.732-1.887,11.445-2.786,17.179
				c5.654-0.887,11.304-1.824,16.943-2.814c0.219,4.986,0.094,9.98,0.094,14.969c-5.655-0.936-11.296-1.943-16.967-2.817
				c0.884,5.538,1.826,11.055,2.709,16.587c-4.918,0.037-9.83,0.007-14.74,0.03c0.813-5.549,1.832-11.06,2.664-16.599
				c-5.619,0.902-11.222,1.887-16.835,2.781c0.021-4.977,0.008-9.949,0.015-14.924c5.642,0.9,11.268,1.883,16.904,2.787
				C543.12,251.641,542.211,245.936,541.216,240.235z"/>
			<path fill="#9D9D9C" d="M612.216,240.179c4.925-0.009,9.852,0,14.778,0c-0.857,5.739-1.878,11.462-2.776,17.204
				c5.679-0.912,11.347-1.873,17.019-2.833c0.055,4.979,0.025,9.968,0.034,14.962c-5.658-0.945-11.306-1.889-16.954-2.846
				c0.795,5.566,1.875,11.083,2.627,16.652c-4.898-0.037-9.782,0-14.676-0.037c0.855-5.519,1.798-11.029,2.674-16.546
				c-5.623,0.841-11.225,1.864-16.837,2.768c-0.021-4.962,0-9.925-0.01-14.89c5.646,0.794,11.255,1.879,16.902,2.727
				C614.111,251.611,613.116,245.905,612.216,240.179z"/>
			<path fill="#9D9D9C" d="M541.225,310.792c4.936-0.111,9.87-0.05,14.804-0.057c-0.885,5.707-1.898,11.399-2.749,17.117
				c5.682-0.88,11.34-1.91,17.02-2.824c-0.006,4.981,0.096,9.966-0.069,14.953c-5.622-0.963-11.248-1.929-16.879-2.789
				c0.849,5.554,1.825,11.088,2.691,16.646c-4.918,0.037-9.831,0-14.739,0.037c0.777-5.579,1.824-11.113,2.664-16.683
				c-5.617,0.875-11.212,1.871-16.821,2.762c-0.014-4.984-0.007-9.963-0.014-14.939c5.63,0.942,11.264,1.887,16.893,2.838
				C543.157,322.148,542.211,316.467,541.225,310.792z"/>
			<path fill="#9D9D9C" d="M612.199,310.735c4.914,0,9.831-0.007,14.752,0c-0.855,5.727-1.879,11.425-2.745,17.147
				c5.69-0.959,11.368-1.926,17.064-2.862c0.012,4.938-0.065,9.889,0.071,14.834c-5.721-0.658-11.373-1.838-17.057-2.687
				c0.826,5.571,1.852,11.112,2.666,16.693c-4.906-0.007-9.811,0.014-14.713-0.023c0.84-5.546,1.81-11.081,2.666-16.633
				c-5.609,0.862-11.206,1.839-16.8,2.776c-0.115-4.987-0.042-9.982-0.042-14.967c5.636,0.921,11.269,1.948,16.925,2.797
				C614.072,322.118,613.109,316.434,612.199,310.735z"/>
		</g>
	</g>
	<g>
		<path fill="#B3232C" d="M765.976,186.274c0-16.313-0.22-30.67-0.646-43.071c-0.431-12.403-1.075-21.494-1.938-27.275
			c-0.172-1.014-0.434-1.951-0.774-2.798c-0.348-0.853-1.033-1.533-2.066-2.041c-1.208-0.676-2.157-1.358-2.843-2.035
			c-0.692-0.681-1.034-1.531-1.034-2.554c0-2.71,2.068-5.34,6.201-7.885s8.697-4.663,13.695-6.36
			c3.443-1.185,6.672-2.12,9.688-2.799c3.011-0.675,5.466-1.018,7.362-1.018c2.584,0,5.385,0.169,8.398,0.509
			c3.012,0.341,6.074,0.851,9.174,1.526c2.406,0.509,4.817,1.145,7.232,1.908c2.409,0.763,4.734,1.57,6.979,2.416
			c0.342,0.172,0.686,0.344,1.033,0.511c0.342,0.171,0.686,0.342,1.032,0.509c2.585,1.523,5.076,3.733,7.491,6.613
			c2.413,2.886,4.393,5.939,5.944,9.158c1.032,2.034,1.848,4.031,2.455,5.979c0.601,1.951,0.903,3.688,0.903,5.214
			c0,5.769-0.389,10.729-1.162,14.883c-0.775,4.16-1.855,7.338-3.23,9.539c-0.864,1.361-1.936,2.843-3.229,4.455
			c-1.293,1.611-2.629,3.267-4.007,4.961c-1.206,1.359-2.412,2.669-3.618,3.943c-1.206,1.272-2.412,2.502-3.613,3.688
			c-3.104,2.887-6.073,5.34-8.918,7.377c-2.841,2.036-5.037,3.053-6.586,3.053c-1.033,0-2.197-0.166-3.488-0.51
			c-1.294-0.337-2.543-0.761-3.747-1.272c-1.034-0.509-2.065-0.972-3.1-1.398c-1.036-0.42-1.983-0.888-2.845-1.398
			c-1.206-0.677-2.194-1.354-2.97-2.036c-0.772-0.676-1.162-1.272-1.162-1.779c0-0.848,0.429-1.566,1.29-2.164
			c0.861-0.592,2.497-1.143,4.912-1.655c8.093-1.69,14.596-5.253,19.508-10.685c4.907-5.424,7.36-11.445,7.36-18.061
			c0-1.692-0.129-3.729-0.384-6.105c-0.263-2.373-0.738-4.834-1.424-7.376c-1.379-4.579-3.533-8.818-6.458-12.721
			c-2.931-3.901-6.977-5.853-12.145-5.853c-2.756,0-5.298,0.259-7.621,0.768c-2.325,0.509-4.695,1.273-7.106,2.289
			c-0.865,0.513-1.769,1.023-2.713,1.531c-0.949,0.508-1.938,1.022-2.974,1.529c-0.17,0.853-0.302,1.744-0.386,2.676
			c-0.087,0.937-0.13,1.912-0.13,2.932c-0.347,2.891-0.646,6.032-0.903,9.426c-0.259,3.399-0.477,6.883-0.645,10.452
			c-0.176,3.907-0.349,7.73-0.52,11.468c-0.171,3.734-0.258,7.137-0.258,10.191v67.278c0,9.345-1.075,16.226-3.228,20.644
			c-2.157,4.412-5.903,6.624-11.239,6.624c-1.38,0-2.457-0.298-3.232-0.89c-0.775-0.598-1.16-1.57-1.16-2.924v-0.258
			c0-0.684,0.167-1.406,0.516-2.165c0.344-0.768,0.684-1.829,1.032-3.188c0.344-1.525,0.646-3.521,0.907-5.986
			c0.257-2.463,0.386-5.736,0.386-9.813V186.274z"/>
		<path fill="#B3232C" d="M930.689,94.797c5.257,6.616,7.88,14.754,7.88,24.424c0,8.99-1.639,16.368-4.904,22.134
			c-3.278,5.765-6.81,10.091-10.599,12.973c-0.862,0.681-1.72,1.272-2.584,1.78c-0.859,0.512-1.722,0.937-2.58,1.273l-18.348,8.141
			v0.51c1.895,0.172,3.53,0.552,4.91,1.144c1.374,0.595,2.585,1.571,3.617,2.926c14.295,17.472,27.388,31.165,39.275,41.087
			c11.883,9.921,17.826,15.644,17.826,17.17c0,0.51-0.044,0.934-0.127,1.272c-0.092,0.342-0.133,0.682-0.133,1.019
			c-0.174,0.679-0.514,1.359-1.035,2.035c-0.514,0.68-1.202,1.443-2.064,2.289c-1.208,1.189-2.113,2.077-2.713,2.673
			c-0.604,0.594-1.251,1.06-1.938,1.396c-0.174,0-0.389,0.044-0.646,0.13c-0.256,0.085-0.474,0.125-0.646,0.125h-4.133
			c-0.689,0-1.339-0.04-1.938-0.125c-0.605-0.086-1.162-0.297-1.68-0.637c-0.688-0.167-1.336-0.509-1.938-1.02
			c-0.605-0.506-1.248-1.186-1.938-2.032c-2.414-2.884-5.299-6.36-8.653-10.432c-3.361-4.072-8.057-9.325-14.084-15.774
			l-27.906-29.763c-1.722-1.866-3.487-3.094-5.296-3.689c-1.807-0.594-3.834-0.89-6.071-0.89c-0.173,2.713-0.303,5.682-0.386,8.904
			c-0.092,3.22-0.129,6.955-0.129,11.193V236.5c0,1.359-0.35,2.587-1.035,3.687c-0.692,1.105-1.983,1.655-3.879,1.655
			c-0.862,0-2.109-0.165-3.745-0.506c-1.639-0.34-3.315-0.767-5.038-1.274c-2.415-0.847-4.693-1.908-6.847-3.181
			c-2.157-1.274-3.229-2.671-3.229-4.196c0-0.846,0.47-1.99,1.419-3.436c0.947-1.44,2.107-3.007,3.488-4.705
			c0.689-0.848,1.293-4.281,1.813-10.304c0.514-6.017,0.858-12.505,1.032-19.463c0.167-5.424,0.298-10.595,0.386-15.517
			c0.086-4.918,0.13-8.648,0.13-11.195c0-2.201,0-4.448,0-6.742c0-2.286,0-4.616,0-6.995c-0.17-6.952-0.349-13.692-0.516-20.224
			c-0.174-6.53-0.519-12.084-1.032-16.664c-0.178-1.186-0.563-1.992-1.164-2.416c-0.607-0.422-1.254-0.803-1.938-1.146
			c-0.176,0-0.259-0.083-0.259-0.255c-1.036-0.337-1.896-0.846-2.584-1.526c-0.688-0.675-1.032-1.947-1.032-3.815
			c0-1.355,0.257-2.584,0.771-3.688c0.518-1.1,1.379-2.076,2.585-2.926c1.895-1.184,3.788-2.375,5.685-3.561
			c1.893-1.186,3.787-2.203,5.684-3.054c7.063-3.561,13.824-6.145,20.283-7.761c6.461-1.609,11.151-2.415,14.082-2.415
			C917.47,84.876,925.433,88.183,930.689,94.797z M882.245,158.145c0.346,0.68,0.903,1.186,1.679,1.526
			c0.774,0.34,1.767,0.509,2.973,0.509c0.516,0,2.41-0.766,5.684-2.293c3.27-1.526,6.89-3.728,10.852-6.613
			c4.136-3.22,7.922-7.207,11.369-11.957c3.441-4.744,5.166-10.256,5.166-16.535c0-8.479-1.725-14.455-5.166-17.936
			c-3.447-3.474-7.584-5.214-12.402-5.214c-0.865,0-1.725,0.044-2.585,0.128c-0.864,0.086-1.722,0.297-2.584,0.633
			c-2.237,0.51-4.437,1.402-6.587,2.674c-2.154,1.272-3.92,2.844-5.295,4.705c-0.69,2.377-1.294,6.194-1.811,11.449
			c-0.516,5.26-0.863,10.771-1.033,16.535c-0.174,2.035-0.259,3.987-0.259,5.852c0,1.868,0,3.732,0,5.596V158.145z"/>
		<path fill="#B3232C" d="M958.983,164.759c0.17-2.546,0.514-5.088,1.032-7.633c2.407-14.412,8.783-27.687,19.116-39.813
			c10.338-12.124,25.579-18.19,45.733-18.19c13.78,0,25.752,5.384,35.916,16.152c10.162,10.771,15.244,27.947,15.244,51.517
			c0,22.561-6.504,39.774-19.51,51.646c-13.005,11.874-27.43,17.807-43.275,17.807c-1.034,0-2.027-0.038-2.974-0.126
			c-0.946-0.084-1.937-0.128-2.969-0.128c-12.235-1.527-23.382-7.633-33.46-18.316c-10.076-10.686-15.113-25.776-15.113-45.285
			C958.725,169.844,958.807,167.304,958.983,164.759z M978.488,178.623c0.776,4.326,2.195,8.95,4.264,13.866
			c2.752,6.784,7.107,13.06,13.048,18.825c5.94,5.769,13.992,8.65,24.157,8.65c2.068,0,4.352-0.211,6.848-0.635
			c2.494-0.422,5.039-1.146,7.62-2.164c6.032-2.545,11.628-7.415,16.798-14.63c5.166-7.206,7.748-18.101,7.748-32.691
			c0-20.857-4.001-35.397-12.01-43.628c-8.013-8.226-17.016-12.339-27.004-12.339c-13.608,0-24.116,5.429-31.52,16.28
			c-7.408,10.86-11.111,23.578-11.111,38.161C977.326,170.864,977.713,174.299,978.488,178.623z"/>
	</g>
	<path fill="#B3232C" d="M768.871,308.305c-0.702,0-1.494,0.043-2.371,0.126c-0.881,0.089-1.76,0.13-2.635,0.13
		c-0.707,0-1.498,0.041-2.372,0.124c-0.883,0.089-1.763,0.129-2.639,0.129c-1.757,0-3.164-0.805-4.219-2.415
		c-1.053-1.609-1.671-3.345-1.844-5.213c-0.177-0.338-0.264-0.674-0.264-1.018c0-0.335,0-0.674,0-1.016
		c0-0.508,0.133-1.017,0.396-1.523c0.264-0.511,0.566-1.018,0.922-1.526c0.528-0.677,1.096-1.31,1.715-1.905
		c0.61-0.592,1.272-1.145,1.975-1.653c0.527-0.337,1.055-0.594,1.584-0.763c0.527-0.166,0.961-0.253,1.316-0.253
		c1.931,0,4.172,0.087,6.724,0.253c2.545,0.169,5.751,0.426,9.621,0.763c3.863,0.17,8.435,0.383,13.708,0.636
		c5.272,0.254,11.599,0.381,18.98,0.381c4.746,0,9.531-0.127,14.366-0.381c4.833-0.253,9.71-0.466,14.632-0.636
		c4.919-0.337,9.794-0.594,14.628-0.763c4.835-0.166,9.624-0.253,14.368-0.253c1.405,0,2.414,0.298,3.033,0.89
		c0.612,0.594,0.922,1.483,0.922,2.667c0,0.509-0.264,1.233-0.791,2.163c-0.527,0.932-1.231,1.819-2.109,2.667
		c-0.881,1.017-1.804,1.907-2.767,2.669c-0.969,0.764-1.891,1.398-2.769,1.905c-0.704,0.346-1.319,0.638-1.845,0.892
		c-0.529,0.254-1.055,0.383-1.582,0.383c-2.463,0.17-5.273,0.342-8.438,0.505c-3.161,0.174-6.325,0.344-9.489,0.513
		c-3.868,0.168-7.558,0.296-11.071,0.379c-3.52,0.087-6.59,0.126-9.225,0.126c-1.762,9.831-3.078,21.822-3.956,35.97
		c-0.883,14.151-1.318,33.344-1.318,57.576c0,0.508,0,0.976,0,1.397c0,0.426,0,0.807,0,1.146c0.349,4.914,2.15,9.448,5.403,13.599
		c3.251,4.153,9.096,6.227,17.53,6.227c0.529,0,1.144-0.039,1.846-0.127c0.699-0.084,1.405-0.125,2.109-0.125
		c0.174,0,0.307,0,0.396,0c0.085,0,0.133-0.086,0.133-0.258c0.874,0,1.667-0.039,2.371-0.125c0.699-0.086,1.318-0.129,1.845-0.129
		c0.877,0,1.491,0.344,1.848,1.02c0.35,0.68,0.611,1.525,0.789,2.541c0,0.342,0,0.635,0,0.891c0,0.254,0,0.551,0,0.889
		c0,1.188-0.178,2.287-0.527,3.305c-0.355,1.018-0.97,1.865-1.845,2.543c-1.055,0.848-2.507,1.65-4.352,2.414
		c-1.846,0.76-3.735,1.482-5.668,2.16c-1.229,0.338-2.464,0.59-3.688,0.762c-1.232,0.168-2.373,0.254-3.43,0.254
		c-7.906,0-14.628-2.119-20.165-6.354c-5.536-4.234-9.45-8.896-11.729-13.982c-0.704-1.522-1.233-3.089-1.582-4.702
		c-0.355-1.607-0.529-3.089-0.529-4.448c0-1.692,0.221-3.897,0.66-6.61c0.436-2.708,0.922-6.266,1.451-10.675
		c0.351-4.404,0.743-9.826,1.186-16.267c0.438-6.439,0.658-14.149,0.658-23.135c0-3.726,0-7.454,0-11.183
		c0-3.727-0.09-7.455-0.266-11.186c-0.175-3.726-0.393-7.456-0.656-11.186c-0.264-3.726-0.571-7.454-0.922-11.184H768.871z"/>
	<path fill="#B3232C" d="M938.902,354.313c1.405,0,2.593,0.215,3.561,0.637c0.963,0.426,1.449,1.233,1.449,2.414
		c0,0.512-0.354,1.191-1.055,2.035c-0.702,0.85-1.583,1.78-2.635,2.795c-0.527,0.344-1.055,0.725-1.582,1.145
		c-0.527,0.425-0.968,0.807-1.316,1.145c-1.233,0.851-2.334,1.566-3.299,2.16s-1.802,0.891-2.501,0.891
		c-6.507,0.508-12.655,0.85-18.456,1.017c-5.797,0.171-11.159,0.341-16.079,0.509c-0.881,0-1.807,0-2.77,0c-0.964,0-1.89,0-2.766,0
		c0,19.997,4.127,35.206,12.39,45.627c8.256,10.423,21.439,15.632,39.541,15.632c3.863,0,6.46,0.342,7.776,1.018
		c1.32,0.678,1.979,2.121,1.979,4.322c0,0.166,0,0.338,0,0.506c-0.354,1.357-1.846,2.625-4.479,3.814
		c-2.639,1.184-7.121,1.779-13.447,1.779c-22.849,0-38.489-4.916-46.924-14.744c-8.434-9.825-13.621-20.673-15.552-32.536
		c-0.527-3.897-0.881-7.71-1.055-11.44c-0.177-3.724-0.264-7.282-0.264-10.675c0-33.892,5.885-57.322,17.663-70.285
		c11.77-12.965,25.041-19.446,39.805-19.446c7.204,0,12.168,0.552,14.895,1.652c2.723,1.104,4.086,3.093,4.086,5.973
		c0,1.694-0.441,3.05-1.318,4.065c-0.883,1.018-2.107,1.526-3.691,1.526h-15.553c-8.436,0-16.124,4.028-23.064,12.074
		c-6.946,8.052-11.206,24.871-12.786,50.459c1.405-1.183,3.072-2.161,5.008-2.923c1.931-0.763,4.219-1.146,6.854-1.146H938.902z"/>
	<path fill="#B3232C" d="M995.078,280.088c0.17,0,0.394-0.037,0.658-0.126c0.263-0.083,0.482-0.128,0.658-0.128
		c1.406-0.338,2.855-0.592,4.352-0.764c1.489-0.166,3.379-0.253,5.668-0.253c12.476,0,23.152,3.05,32.029,9.15
		c8.869,6.101,13.838,12.8,14.893,20.084c0.174,0.509,0.266,0.975,0.266,1.396c0,0.425,0,0.89,0,1.396
		c0,9.152-2.242,16.313-6.723,21.48c-4.484,5.174-9.359,9.112-14.63,11.82c-1.761,1.017-3.563,1.866-5.406,2.541
		c-1.845,0.679-3.56,1.272-5.142,1.779c-3.162,1.018-5.361,1.78-6.588,2.288c-1.233,0.509-1.936,0.935-2.107,1.272
		c-0.181,0-0.266,0.045-0.266,0.126c0,0.089,0,0.215,0,0.381c0,0.341,0.218,0.637,0.656,0.892c0.439,0.254,0.924,0.554,1.453,0.888
		c2.457,1.191,9.224,5.254,20.299,12.201c11.07,6.953,22.933,14.407,35.586,22.371c10.018,6.1,19.549,11.947,28.604,17.54
		c9.049,5.59,16.122,9.831,21.223,12.708c3.512,1.869,7.069,3.304,10.676,4.324c3.596,1.018,7.25,1.525,10.938,1.525
		c0.172,0,0.351,0,0.527,0c0.527,0.172,1.055,0.594,1.582,1.27c0.526,0.68,0.79,1.525,0.79,2.541c0,0.682-0.572,1.697-1.714,3.051
		c-1.145,1.359-2.502,2.713-4.085,4.068c-0.703,0.674-1.365,1.27-1.977,1.779c-0.619,0.508-1.279,1.018-1.977,1.523
		c-1.584,1.355-3.166,2.5-4.748,3.432c-1.58,0.93-2.813,1.4-3.689,1.4c-3.164,0-10.769-4.197-22.803-12.584
		c-12.039-8.389-25.438-17.665-40.201-27.834c-1.409-1.017-2.899-2.073-4.481-3.178c-1.582-1.101-3.162-2.16-4.746-3.176
		c-12.126-8.304-23.816-15.762-35.062-22.37c-11.248-6.609-20.298-10.507-27.15-11.694c-0.177,2.035-0.355,4.323-0.527,6.866
		c-0.177,2.54-0.262,5.168-0.262,7.878c-0.18,2.884-0.266,5.681-0.266,8.389c0,2.713,0,5.171,0,7.371
		c0,6.779,0.133,12.417,0.395,16.904c0.262,4.493,0.57,8.176,0.922,11.06c0.172,2.71,0.396,4.914,0.66,6.607
		c0.264,1.695,0.396,3.223,0.396,4.576c0,1.695-0.488,2.879-1.451,3.559c-0.966,0.676-2.681,1.016-5.139,1.016
		c-1.057,0-2.288-0.125-3.691-0.381c-1.407-0.256-2.9-0.551-4.479-0.891c-2.638-0.506-5.012-1.354-7.118-2.539
		c-2.112-1.186-3.164-2.371-3.164-3.561c0-0.846,0.262-1.736,0.79-2.668c0.527-0.93,1.14-2.242,1.844-3.939
		c0.53-1.354,1.055-3.09,1.584-5.212c0.525-2.117,0.876-4.703,1.053-7.754c0-1.354,0.085-4.232,0.266-8.642
		c0.173-4.406,0.351-9.572,0.525-15.506c0.175-3.56,0.305-7.201,0.396-10.931c0.085-3.725,0.22-7.539,0.395-11.437
		c0-4.409,0.041-8.685,0.132-12.839c0.088-4.152,0.131-8.092,0.131-11.821c0-2.199-0.043-4.957-0.131-8.263
		c-0.091-3.304-0.132-6.734-0.132-10.292c-0.354-5.421-0.748-10.423-1.186-14.997c-0.44-4.578-1.101-7.119-1.979-7.628
		c-1.759-1.018-3.12-2.118-4.083-3.304c-0.969-1.186-1.449-2.625-1.449-4.321c0-0.339,0.041-0.634,0.129-0.89
		c0.088-0.254,0.303-0.549,0.66-0.89c0.348-0.511,0.919-1.057,1.712-1.651c0.792-0.593,1.715-0.974,2.77-1.146L995.078,280.088z
		 M992.969,346.053c0.527,0.425,1.055,0.721,1.58,0.889c0.174,0,0.35,0,0.529,0c1.053,0,3.294-0.762,6.721-2.287
		c3.428-1.524,9.444-4.406,18.059-8.643c4.216-2.201,7.291-5.975,9.226-11.313c1.935-5.337,2.9-10.969,2.9-16.904
		c0-2.37-0.395-4.322-1.187-5.848c-0.79-1.525-1.714-2.959-2.767-4.318c-0.177-0.339-0.442-0.635-0.793-0.891
		c-0.354-0.255-0.789-0.547-1.315-0.891c-0.705-0.337-1.494-0.674-2.373-1.016c-0.883-0.339-1.76-0.674-2.637-1.018
		c-1.408-0.509-2.725-0.927-3.955-1.271c-1.23-0.337-2.107-0.509-2.637-0.509c-0.706,0-1.891,0.087-3.561,0.254
		c-1.667,0.172-3.385,0.508-5.137,1.017c-2.108,0.341-4.133,0.892-6.063,1.653c-1.937,0.763-2.991,1.652-3.165,2.67
		c-0.527,2.539-1.014,5.255-1.449,8.135c-0.438,2.882-0.836,5.762-1.186,8.642c-0.529,5.934-0.922,11.608-1.189,17.03
		c-0.262,5.426-0.395,9.576-0.395,12.456C992.176,344.91,992.441,345.632,992.969,346.053z"/>
	<path fill="#B3232C" d="M1157.457,280.088c0.172,0,0.393-0.037,0.658-0.126c0.262-0.083,0.48-0.128,0.66-0.128
		c1.402-0.338,2.853-0.592,4.348-0.764c1.49-0.166,3.379-0.253,5.668-0.253c12.477,0,23.153,3.05,32.029,9.15
		c8.871,6.101,13.838,12.8,14.893,20.084c0.176,0.509,0.266,0.975,0.266,1.396c0,0.425,0,0.89,0,1.396
		c0,9.152-2.239,16.313-6.722,21.48c-4.482,5.174-9.36,9.112-14.632,11.82c-1.759,1.017-3.559,1.866-5.404,2.541
		c-1.846,0.679-3.557,1.272-5.139,1.779c-3.165,1.018-5.366,1.78-6.591,2.288c-1.231,0.509-1.938,0.935-2.108,1.272
		c-0.178,0-0.265,0.045-0.265,0.126c0,0.089,0,0.215,0,0.381c0,0.341,0.22,0.637,0.658,0.892c0.438,0.254,0.922,0.554,1.451,0.888
		c2.458,1.191,9.226,5.254,20.298,12.201c11.07,6.953,22.934,14.407,35.587,22.371c10.021,6.1,19.55,11.947,28.604,17.54
		c9.05,5.59,16.122,9.831,21.222,12.708c3.512,1.869,7.072,3.304,10.677,4.324c3.599,1.018,7.251,1.525,10.938,1.525
		c0.172,0,0.352,0,0.527,0c0.527,0.172,1.057,0.594,1.584,1.27c0.523,0.68,0.789,1.525,0.789,2.541c0,0.682-0.573,1.697-1.715,3.051
		c-1.143,1.359-2.502,2.713-4.084,4.068c-0.706,0.674-1.366,1.27-1.979,1.779c-0.617,0.508-1.275,1.018-1.977,1.523
		c-1.582,1.355-3.164,2.5-4.746,3.432c-1.579,0.93-2.814,1.4-3.691,1.4c-3.162,0-10.768-4.197-22.8-12.584
		c-12.04-8.389-25.438-17.665-40.202-27.834c-1.41-1.017-2.898-2.073-4.48-3.178c-1.584-1.101-3.164-2.16-4.746-3.176
		c-12.126-8.304-23.816-15.762-35.061-22.37c-11.25-6.609-20.299-10.507-27.152-11.694c-0.176,2.035-0.356,4.323-0.527,6.866
		c-0.18,2.54-0.263,5.168-0.263,7.878c-0.179,2.884-0.265,5.681-0.265,8.389c0,2.713,0,5.171,0,7.371
		c0,6.779,0.132,12.417,0.396,16.904c0.263,4.493,0.568,8.176,0.923,11.06c0.17,2.71,0.395,4.914,0.658,6.607
		c0.264,1.695,0.395,3.223,0.395,4.576c0,1.695-0.485,2.879-1.449,3.559c-0.969,0.676-2.68,1.016-5.14,1.016
		c-1.055,0-2.286-0.125-3.692-0.381c-1.404-0.256-2.898-0.551-4.48-0.891c-2.637-0.506-5.01-1.354-7.115-2.539
		c-2.111-1.186-3.166-2.371-3.166-3.561c0-0.846,0.262-1.736,0.793-2.668c0.525-0.93,1.139-2.242,1.844-3.939
		c0.529-1.354,1.053-3.09,1.582-5.212c0.525-2.117,0.876-4.703,1.053-7.754c0-1.354,0.087-4.232,0.266-8.642
		c0.172-4.406,0.351-9.572,0.525-15.506c0.174-3.56,0.307-7.201,0.398-10.931c0.083-3.725,0.218-7.539,0.395-11.437
		c0-4.409,0.041-8.685,0.129-12.839c0.089-4.152,0.133-8.092,0.133-11.821c0-2.199-0.044-4.957-0.133-8.263
		c-0.088-3.304-0.129-6.734-0.129-10.292c-0.357-5.421-0.748-10.423-1.189-14.997c-0.438-4.578-1.098-7.119-1.977-7.628
		c-1.758-1.018-3.119-2.118-4.084-3.304c-0.969-1.186-1.449-2.625-1.449-4.321c0-0.339,0.042-0.634,0.133-0.89
		c0.084-0.254,0.303-0.549,0.656-0.89c0.349-0.511,0.922-1.057,1.715-1.651c0.789-0.593,1.713-0.974,2.768-1.146L1157.457,280.088z
		 M1155.348,346.053c0.527,0.425,1.055,0.721,1.58,0.889c0.174,0,0.35,0,0.529,0c1.053,0,3.295-0.762,6.721-2.287
		c3.426-1.524,9.445-4.406,18.06-8.643c4.216-2.201,7.288-5.975,9.224-11.313c1.934-5.337,2.898-10.969,2.898-16.904
		c0-2.37-0.391-4.322-1.184-5.848c-0.789-1.525-1.715-2.959-2.77-4.318c-0.176-0.339-0.44-0.635-0.791-0.891
		c-0.352-0.255-0.791-0.547-1.314-0.891c-0.708-0.337-1.498-0.674-2.373-1.016c-0.883-0.339-1.762-0.674-2.636-1.018
		c-1.41-0.509-2.729-0.927-3.957-1.271c-1.229-0.337-2.107-0.509-2.637-0.509c-0.704,0-1.892,0.087-3.559,0.254
		c-1.669,0.172-3.386,0.508-5.14,1.017c-2.107,0.341-4.132,0.892-6.064,1.653c-1.936,0.763-2.99,1.652-3.16,2.67
		c-0.529,2.539-1.015,5.255-1.451,8.135c-0.439,2.882-0.836,5.762-1.188,8.642c-0.527,5.934-0.921,11.608-1.186,17.03
		c-0.264,5.426-0.396,9.576-0.396,12.456C1154.555,344.91,1154.82,345.632,1155.348,346.053z"/>
	<path fill="#B3232C" d="M1335.906,394.985c-6.682,0-11.689,0.809-15.027,2.416c-3.338,1.614-6.24,4.535-8.698,8.768L1299,428.285
		c-0.175,0.342-0.354,0.68-0.527,1.018c-0.178,0.34-0.262,0.762-0.262,1.271c-0.179,0.17-0.264,0.342-0.264,0.508
		c0,0.172,0,0.34,0,0.508c-0.355,1.018-0.752,1.951-1.188,2.795c-0.44,0.852-1.539,1.273-3.293,1.273
		c-4.924,0-8.879-0.551-11.864-1.656c-2.993-1.098-4.481-2.494-4.481-4.191c0-1.525,0.875-3.178,2.634-4.959
		c1.756-1.777,3.778-4.021,6.063-6.736c2.811-3.557,5.975-7.75,9.492-12.58c3.515-4.831,7.025-9.953,10.543-15.379
		c1.229-1.692,2.414-3.433,3.56-5.212c1.14-1.779,2.327-3.6,3.558-5.464c6.855-10.677,12.828-20.717,17.928-30.125
		c5.094-9.403,7.646-15.461,7.646-18.173c0-1.863-0.751-3.897-2.242-6.101c-1.495-2.199-3.735-4.743-6.724-7.627l-21.617-21.099
		c-1.758-1.689-3.337-3.051-4.744-4.067c-1.408-1.018-2.463-1.863-3.162-2.542c-0.355-0.337-0.619-0.675-0.791-1.016
		c-0.177-0.339-0.264-0.764-0.264-1.271c0-0.509,0.35-1.101,1.055-1.779c0.699-0.676,1.666-1.356,2.9-2.035
		c0.701-0.509,1.537-0.971,2.504-1.396c0.963-0.422,1.887-0.89,2.767-1.398c1.405-0.509,2.77-0.973,4.088-1.398
		c1.318-0.422,2.411-0.636,3.296-0.636c3.863,0,6.59,0.253,8.172,0.764c1.582,0.507,2.985,1.949,4.215,4.321
		c0.176,0.508,0.398,1.06,0.66,1.651c0.262,0.597,0.568,1.313,0.922,2.16c0.352,0.849,1.098,2.122,2.242,3.814
		c1.141,1.694,2.504,3.476,4.086,5.337c0.352,0.343,0.657,0.678,0.923,1.017c0.265,0.342,0.569,0.681,0.922,1.016
		c0.175,0.17,0.305,0.344,0.397,0.509c0.084,0.174,0.217,0.344,0.396,0.509c19.856,23.049,36.067,41.226,48.636,54.527
		c12.563,13.304,24.385,25.124,35.456,35.459c1.582,1.357,3.164,2.756,4.746,4.195c1.579,1.442,3.165,2.839,4.747,4.193
		c3.511,3.05,7.071,6.145,10.672,9.278c3.6,3.137,7.338,6.397,11.205,9.788c1.582,1.357,3.164,2.331,4.746,2.921
		c1.58,0.596,2.986,1.062,4.219,1.4c1.227,0.339,2.194,0.759,2.898,1.271c0.699,0.508,1.055,1.611,1.055,3.303
		c0,0.51-0.355,1.273-1.055,2.289c-0.704,1.018-1.582,2.033-2.637,3.049c-0.527,0.68-1.101,1.271-1.715,1.779
		c-0.615,0.51-1.275,1.016-1.975,1.525c-1.055,0.68-2.068,1.27-3.031,1.781c-0.969,0.506-1.806,0.76-2.506,0.76l-7.908,0.256
		c-1.055-0.17-1.847-0.553-2.371-1.145c-0.527-0.596-0.969-1.311-1.32-2.162c-0.176,0-0.262-0.08-0.262-0.252
		c-0.177-0.34-0.357-0.637-0.527-0.891c-0.177-0.254-0.357-0.549-0.527-0.889c-2.813-3.896-7.209-8.896-13.182-14.997
		c-5.977-6.104-13.356-13.558-22.145-22.372H1335.906z M1351.199,340.586l-17.403,28.979c-2.284,3.729-3.78,6.229-4.482,7.499
		c-0.701,1.271-1.052,2.33-1.052,3.178c0,1.357,1.316,2.203,3.955,2.541c2.634,0.343,10.191,0.51,22.67,0.51
		c13.88,0,23.328-0.213,28.338-0.637c5.01-0.422,8.131-0.89,9.358-1.396L1351.199,340.586z"/>
	<path fill="#B3232C" d="M760.663,617.191c0.495-0.785,1.07-1.262,1.729-1.438c0.161-0.172,0.328-0.262,0.491-0.262
		c0.164,0,0.328,0,0.495,0c1.148,0,2.425,0.262,3.824,0.783c1.396,0.525,2.839,1.047,4.317,1.568
		c1.643,0.699,3.414,1.309,5.307,1.832c1.888,0.523,3.987,0.785,6.294,0.785c4.273,0,7.772-1.525,10.486-4.578
		c2.715-3.047,4.153-6.406,4.317-10.068c0-0.17,0-0.303,0-0.393c0-0.086,0-0.215,0-0.393c0-5.23-1.646-11.77-4.934-19.615
		c-3.295-7.848-6.83-15.865-10.611-24.063c-3.949-8.369-7.568-16.434-10.859-24.193c-3.291-7.758-4.934-14.254-4.934-19.484
		c0-2.439,0.74-5.795,2.221-10.07c1.48-4.27,3.535-8.672,6.168-13.207c3.783-6.627,8.473-12.727,14.065-18.311
		c5.592-5.578,11.516-8.367,17.767-8.367c0.987,0,2.303,0.088,3.951,0.26c1.641,0.178,3.367,0.439,5.182,0.785
		c2.628,0.699,5.057,1.568,7.279,2.615c2.22,1.047,3.33,2.355,3.33,3.926c0,3.311-0.615,5.535-1.849,6.666
		c-1.235,1.137-4.157,1.791-8.761,1.963c-10.857,0.176-18.674,2.836-23.444,7.977c-4.773,5.146-7.155,11.291-7.155,18.439
		c0,4.535,1.396,10.246,4.195,17.133c2.795,6.887,5.922,14.252,9.375,22.098c1.315,3.492,2.715,7.063,4.195,10.725
		c1.481,3.662,2.797,7.24,3.95,10.723c1.479,4.709,2.713,9.377,3.702,13.994c0.986,4.621,1.479,9.111,1.479,13.471
		c0,1.219-0.332,3.75-0.986,7.584c-0.66,3.838-1.896,7.936-3.704,12.293c-2.139,5.059-5.143,9.678-9.004,13.861
		c-3.868,4.184-9.008,6.277-15.423,6.277c-1.155,0-2.593-0.176-4.319-0.523c-1.729-0.35-3.498-0.783-5.306-1.309
		c-1.812-0.699-3.577-1.398-5.306-2.092c-1.727-0.697-3.17-1.484-4.319-2.354c-0.492-0.352-0.946-0.701-1.358-1.045
		c-0.411-0.35-0.699-0.695-0.862-1.049c-0.165-0.521-0.331-1.047-0.491-1.568c-0.167-0.521-0.334-1.047-0.495-1.57
		c-0.165-1.047-0.332-2.09-0.491-3.139c-0.169-1.047-0.249-2.09-0.249-3.137C759.923,619.152,760.172,617.977,760.663,617.191z"/>
	<path fill="#B3232C" d="M864.327,589.598c-6.254,0-10.944,0.83-14.067,2.484c-3.125,1.66-5.84,4.668-8.142,9.023l-12.339,22.754
		c-0.164,0.354-0.331,0.699-0.494,1.049c-0.166,0.35-0.245,0.781-0.245,1.307c-0.167,0.174-0.247,0.352-0.247,0.523
		c0,0.176,0,0.35,0,0.521c-0.332,1.047-0.703,2.008-1.111,2.877c-0.411,0.877-1.442,1.309-3.084,1.309
		c-4.608,0-8.309-0.564-11.105-1.701c-2.8-1.131-4.193-2.568-4.193-4.314c0-1.57,0.82-3.268,2.466-5.1
		c1.645-1.83,3.538-4.139,5.677-6.932c2.63-3.662,5.592-7.977,8.883-12.945c3.291-4.971,6.579-10.24,9.871-15.824
		c1.149-1.742,2.26-3.531,3.332-5.361c1.068-1.83,2.178-3.703,3.331-5.623c6.415-10.986,12.007-21.316,16.78-30.994
		c4.77-9.678,7.155-15.91,7.155-18.699c0-1.918-0.701-4.01-2.098-6.277c-1.398-2.264-3.496-4.879-6.293-7.846l-20.233-21.709
		c-1.646-1.742-3.127-3.139-4.443-4.186c-1.318-1.047-2.305-1.918-2.96-2.617c-0.332-0.346-0.579-0.693-0.74-1.043
		c-0.167-0.35-0.247-0.787-0.247-1.309c0-0.523,0.327-1.133,0.987-1.83c0.655-0.695,1.562-1.396,2.715-2.094
		c0.655-0.523,1.439-1.002,2.343-1.438s1.768-0.916,2.592-1.438c1.315-0.527,2.592-1.002,3.826-1.441
		c1.233-0.432,2.258-0.654,3.084-0.654c3.615,0,6.169,0.262,7.65,0.787c1.48,0.521,2.795,2.006,3.947,4.447
		c0.163,0.521,0.371,1.088,0.617,1.697c0.245,0.613,0.532,1.354,0.862,2.223c0.329,0.877,1.027,2.184,2.1,3.926
		c1.066,1.742,2.344,3.574,3.824,5.49c0.328,0.352,0.616,0.699,0.864,1.047c0.246,0.35,0.53,0.699,0.862,1.045
		c0.163,0.176,0.284,0.354,0.371,0.525c0.079,0.176,0.204,0.35,0.369,0.521c18.59,23.717,33.765,42.418,45.53,56.104
		c11.758,13.689,22.824,25.85,33.189,36.484c1.479,1.398,2.96,2.836,4.441,4.316c1.479,1.482,2.962,2.922,4.441,4.314
		c3.289,3.139,6.621,6.32,9.993,9.547c3.37,3.229,6.869,6.582,10.489,10.07c1.48,1.396,2.96,2.398,4.439,3.006
		c1.48,0.613,2.797,1.092,3.949,1.441c1.148,0.35,2.057,0.781,2.715,1.307c0.654,0.523,0.986,1.658,0.986,3.4
		c0,0.521-0.332,1.307-0.986,2.352c-0.658,1.047-1.482,2.094-2.469,3.139c-0.493,0.699-1.031,1.309-1.605,1.83
		c-0.575,0.525-1.194,1.047-1.85,1.57c-0.986,0.699-1.934,1.307-2.836,1.832c-0.908,0.523-1.69,0.783-2.344,0.783l-7.403,0.262
		c-0.987-0.174-1.729-0.566-2.222-1.176c-0.494-0.613-0.905-1.348-1.233-2.225c-0.167,0-0.247-0.084-0.247-0.26
		c-0.164-0.35-0.333-0.654-0.494-0.916c-0.166-0.262-0.332-0.564-0.492-0.914c-2.633-4.01-6.747-9.154-12.34-15.432
		c-5.594-6.277-12.504-13.947-20.728-23.018H864.327z M878.641,533.627l-16.289,29.816c-2.138,3.838-3.54,6.408-4.195,7.717
		c-0.658,1.307-0.986,2.398-0.986,3.268c0,1.398,1.233,2.27,3.703,2.615c2.466,0.354,9.539,0.523,21.221,0.523
		c12.994,0,21.838-0.217,26.528-0.654c4.688-0.434,7.607-0.914,8.757-1.438L878.641,533.627z"/>
	<path fill="#B3232C" d="M993.769,535.197c0.16-3.311,0.284-6.578,0.368-9.809c0.082-3.225,0.123-6.494,0.123-9.811
		c0-6.1-1.11-10.414-3.33-12.943c-2.221-2.525-4.649-4.402-7.279-5.625c-0.827-0.346-1.646-0.652-2.469-0.916
		c-0.823-0.26-1.645-0.561-2.469-0.916c-1.646-0.693-3.045-1.438-4.195-2.223c-1.149-0.783-1.725-1.959-1.725-3.527
		c0-0.172,0.037-0.395,0.123-0.656c0.082-0.26,0.122-0.477,0.122-0.652c0.163-0.35,0.451-0.742,0.864-1.178
		c0.408-0.432,0.944-0.916,1.603-1.439l8.886-7.586c1.314-1.215,2.468-2.002,3.455-2.352c0.986-0.348,1.808-0.523,2.467-0.523
		c0.33,0,0.617,0.045,0.863,0.131c0.248,0.09,0.531,0.133,0.864,0.133c0.653,0.35,1.313,0.828,1.974,1.436
		c0.656,0.615,1.48,1.531,2.467,2.746c1.643,2.094,3.332,4.186,5.061,6.277c1.727,2.094,3.411,4.186,5.058,6.275
		c1.644,1.924,3.247,3.838,4.814,5.756c1.562,1.922,3.164,3.838,4.81,5.756c16.448,20.051,31.834,38.229,46.146,54.529
		c14.312,16.309,23.276,26.115,26.897,29.426c0.819-5.23,1.479-10.373,1.973-15.432c0.494-5.055,0.904-10.025,1.235-14.908
		c0.16-3.311,0.286-6.67,0.369-10.07c0.083-3.398,0.124-6.754,0.124-10.068c0-6.799-0.244-12.727-0.74-17.785
		c-0.494-5.055-0.988-9.326-1.481-12.816c-0.493-3.484-0.986-6.275-1.479-8.369c-0.494-2.092-0.742-3.748-0.742-4.969
		c0.164-2.264,1.398-3.924,3.703-4.969c2.303-1.047,4.769-1.742,7.402-2.094c1.15,0,2.303-0.041,3.455-0.131
		c1.15-0.086,2.22-0.131,3.208-0.131c2.302,0,3.864,0.746,4.688,2.225c0.822,1.482,1.233,3.182,1.233,5.1
		c0,1.746-0.411,4.576-1.233,8.5c-0.824,3.922-1.729,9.283-2.715,16.086c-0.986,6.977-1.894,15.521-2.713,25.631
		c-0.827,10.113-1.235,22.406-1.235,36.877c0,2.094,0.04,4.316,0.126,6.67c0.078,2.354,0.122,4.838,0.122,7.453
		c0,2.445,0.038,4.971,0.122,7.586c0.082,2.617,0.127,5.322,0.127,8.107c0,0.875-0.169,1.701-0.497,2.484
		c-0.33,0.785-0.739,1.615-1.233,2.484c-0.824,1.225-1.85,2.445-3.084,3.664c-1.234,1.221-2.43,2.352-3.58,3.398
		c-1.81,1.398-3.494,2.574-5.056,3.531c-1.566,0.961-2.593,1.438-3.086,1.438s-0.905-0.26-1.233-0.783
		c-0.332-0.525-0.58-1.219-0.741-2.094c-0.825-2.092-1.812-5.27-2.962-9.545c-1.15-4.27-3.127-8.672-5.922-13.207
		c-0.492-1.047-1.072-2.002-1.727-2.877c-0.66-0.871-1.318-1.742-1.973-2.617c-2.469-2.963-4.938-5.971-7.404-9.023
		c-2.467-3.049-5.02-6.055-7.648-9.021c-10.86-12.557-21.143-24.064-30.846-34.525c-9.71-10.461-16.535-18.133-20.483-23.018
		c-0.165,3.664-0.369,7.369-0.616,11.115c-0.246,3.754-0.454,7.545-0.617,11.379c-0.493,11.508-0.783,22.623-0.864,33.348
		c-0.085,10.723-0.122,19.4-0.122,26.023c0,0.875,0,1.699,0,2.484s0,1.613,0,2.484c0,1.225,0.037,2.355,0.122,3.402
		c0.081,1.043,0.124,2.092,0.124,3.139c0,1.92,0.039,3.66,0.125,5.23c0.078,1.568,0.122,2.877,0.122,3.92c0,0.178,0,0.438,0,0.787
		s0,0.613,0,0.783c-0.167,1.225-0.579,2.4-1.235,3.531c-0.658,1.137-1.725,1.877-3.207,2.223c-3.619,0.877-6.414,1.57-8.389,2.094
		c-1.977,0.523-3.786,0.869-5.432,1.045c-0.164,0-0.328,0-0.491,0c-0.167,0-0.331,0-0.495,0c-1.479,0-2.631-0.26-3.451-0.783
		c-0.827-0.525-1.235-1.479-1.235-2.877c0-0.348,0.038-0.654,0.122-0.916c0.082-0.26,0.123-0.564,0.123-0.914
		c0.326-1.047,0.901-2.178,1.729-3.402c0.82-1.217,1.727-2.785,2.713-4.707c0.986-1.916,1.933-4.486,2.84-7.715
		c0.901-3.225,1.439-7.279,1.602-12.162L993.769,535.197z"/>
	<path fill="#B3232C" d="M1149.5,510.609c10.2-12.9,21.469-21.791,33.807-26.676c5.758-2.264,11.434-3.832,17.027-4.709
		c5.59-0.869,10.612-1.309,15.053-1.309c5.263,0,9.705,0.916,13.326,2.746c3.617,1.834,6.084,3.885,7.404,6.148
		c0.326,0.521,0.572,1.092,0.738,1.701c0.162,0.611,0.248,1.176,0.248,1.697c0,0.699-0.248,1.529-0.742,2.486
		c-0.493,0.959-1.153,1.961-1.973,3.008c-0.66,0.873-1.443,1.744-2.345,2.613c-0.905,0.877-1.769,1.66-2.593,2.357
		c-1.153,0.697-2.22,1.307-3.207,1.83c-0.986,0.521-1.811,0.785-2.468,0.785c-0.163,0-0.37-0.043-0.616-0.133
		c-0.246-0.084-0.455-0.131-0.617-0.131c-0.658-0.521-1.359-1.307-2.098-2.352c-0.74-1.049-1.603-2.18-2.592-3.4
		c-1.317-1.396-2.836-2.703-4.563-3.926c-1.729-1.217-3.992-1.83-6.788-1.83c-13.82,0-24.594,4.016-32.325,12.033
		c-7.734,8.021-13.41,16.826-17.025,26.414c-2.634,6.801-4.406,13.383-5.307,19.748c-0.906,6.365-1.357,11.205-1.357,14.516
		c0,2.967,0.369,6.145,1.111,9.545c0.738,3.402,1.766,6.846,3.082,10.334c3.29,8.719,8.305,16.697,15.053,23.928
		c6.746,7.24,14.723,10.857,23.937,10.857c6.085,0,11.515-1.09,16.288-3.271c4.77-2.176,9.044-4.662,12.83-7.453
		c3.617-2.617,6.744-5.01,9.377-7.191c2.631-2.18,4.689-3.271,6.17-3.271c1.643,0,2.92,0.525,3.823,1.57
		c0.903,1.047,1.357,2.354,1.357,3.924c0,0.875-0.86,2.484-2.591,4.836c-1.727,2.355-3.908,4.93-6.537,7.719
		c-1.646,1.568-3.416,3.098-5.309,4.576c-1.891,1.482-3.822,2.836-5.795,4.053c-0.169,0.176-0.371,0.309-0.618,0.393
		c-0.248,0.092-0.456,0.221-0.616,0.393c-2.637,1.221-6.212,2.484-10.737,3.793c-4.524,1.309-9.251,2.137-14.188,2.484
		c-1.81,0.348-3.575,0.564-5.304,0.654c-1.729,0.086-3.416,0.131-5.061,0.131c-2.963,0-6.212-0.352-9.747-1.045
		c-3.538-0.695-7.118-2.002-10.734-3.926c-8.063-4.01-15.423-10.676-22.085-20.008c-6.661-9.324-9.994-22.186-9.994-38.576
		C1134.201,542.871,1139.3,523.516,1149.5,510.609z"/>
	<path fill="#B3232C" d="M1254.58,500.412c-0.659,0-1.4,0.043-2.221,0.129c-0.825,0.092-1.646,0.133-2.467,0.133
		c-0.662,0-1.402,0.043-2.222,0.129c-0.827,0.09-1.646,0.131-2.467,0.131c-1.646,0-2.964-0.824-3.95-2.484
		c-0.986-1.656-1.564-3.443-1.727-5.361c-0.166-0.35-0.246-0.693-0.246-1.049c0-0.344,0-0.693,0-1.043
		c0-0.525,0.122-1.047,0.371-1.568c0.246-0.525,0.53-1.049,0.861-1.57c0.496-0.697,1.026-1.348,1.604-1.963
		c0.573-0.607,1.19-1.176,1.851-1.701c0.494-0.344,0.987-0.607,1.48-0.781s0.902-0.262,1.233-0.262c1.808,0,3.905,0.088,6.294,0.262
		c2.382,0.174,5.385,0.438,9.008,0.781c3.615,0.178,7.894,0.395,12.83,0.656c4.934,0.26,10.857,0.393,17.768,0.393
		c4.443,0,8.92-0.133,13.447-0.393c4.523-0.262,9.09-0.479,13.696-0.656c4.604-0.344,9.169-0.607,13.694-0.781
		s9.008-0.262,13.449-0.262c1.314,0,2.26,0.305,2.84,0.914c0.572,0.613,0.861,1.527,0.861,2.746c0,0.521-0.246,1.268-0.738,2.223
		c-0.494,0.961-1.152,1.875-1.977,2.746c-0.822,1.047-1.688,1.961-2.589,2.746c-0.907,0.785-1.769,1.439-2.593,1.961
		c-0.658,0.354-1.232,0.654-1.725,0.916c-0.495,0.262-0.986,0.393-1.482,0.393c-2.305,0.178-4.936,0.352-7.896,0.521
		c-2.961,0.178-5.922,0.355-8.885,0.525c-3.618,0.174-7.073,0.305-10.361,0.391c-3.295,0.092-6.17,0.133-8.637,0.133
		c-1.647,10.113-2.881,22.451-3.702,37.008c-0.827,14.561-1.235,34.309-1.235,59.24c0,0.523,0,1.006,0,1.438c0,0.438,0,0.83,0,1.18
		c0.328,5.057,2.014,9.721,5.06,13.992c3.042,4.273,8.515,6.408,16.409,6.408c0.494,0,1.068-0.041,1.729-0.131
		c0.654-0.086,1.313-0.131,1.973-0.131c0.164,0,0.287,0,0.371,0c0.082,0,0.123-0.088,0.123-0.264c0.82,0,1.562-0.039,2.222-0.129
		c0.657-0.088,1.235-0.133,1.727-0.133c0.821,0,1.396,0.354,1.729,1.049c0.328,0.697,0.573,1.568,0.739,2.615
		c0,0.35,0,0.654,0,0.914c0,0.262,0,0.568,0,0.916c0,1.221-0.166,2.352-0.492,3.4c-0.334,1.047-0.909,1.918-1.729,2.615
		c-0.987,0.873-2.345,1.699-4.07,2.484c-1.728,0.785-3.498,1.525-5.307,2.225c-1.154,0.346-2.307,0.605-3.453,0.783
		c-1.154,0.172-2.223,0.26-3.211,0.26c-7.401,0-13.693-2.18-18.876-6.537c-5.183-4.355-8.846-9.154-10.981-14.385
		c-0.66-1.568-1.152-3.178-1.479-4.84c-0.333-1.654-0.495-3.178-0.495-4.576c0-1.74,0.206-4.008,0.617-6.801
		c0.408-2.785,0.865-6.445,1.357-10.984c0.327-4.533,0.698-10.111,1.111-16.738c0.406-6.625,0.615-14.557,0.615-23.801
		c0-3.834,0-7.67,0-11.508c0-3.834-0.082-7.67-0.246-11.51c-0.165-3.832-0.369-7.67-0.615-11.508
		c-0.249-3.832-0.538-7.668-0.865-11.506H1254.58z"/>
	<path fill="#B3232C" d="M1386.871,589.598c-6.254,0-10.944,0.83-14.067,2.484c-3.125,1.66-5.841,4.668-8.142,9.023l-12.339,22.754
		c-0.165,0.354-0.331,0.699-0.495,1.049c-0.165,0.35-0.245,0.781-0.245,1.307c-0.167,0.174-0.247,0.352-0.247,0.523
		c0,0.176,0,0.35,0,0.521c-0.331,1.047-0.702,2.008-1.11,2.877c-0.411,0.877-1.44,1.309-3.084,1.309
		c-4.608,0-8.309-0.564-11.105-1.701c-2.8-1.131-4.194-2.568-4.194-4.314c0-1.57,0.819-3.268,2.467-5.1
		c1.643-1.83,3.537-4.139,5.676-6.932c2.632-3.662,5.592-7.977,8.884-12.945c3.29-4.971,6.579-10.24,9.87-15.824
		c1.15-1.742,2.261-3.531,3.332-5.361c1.068-1.83,2.18-3.703,3.332-5.623c6.414-10.986,12.006-21.316,16.779-30.994
		c4.771-9.678,7.156-15.91,7.156-18.699c0-1.918-0.701-4.01-2.098-6.277c-1.398-2.264-3.496-4.879-6.293-7.846l-20.234-21.709
		c-1.646-1.742-3.127-3.139-4.443-4.186c-1.318-1.047-2.305-1.918-2.959-2.617c-0.332-0.346-0.579-0.693-0.74-1.043
		c-0.167-0.35-0.247-0.787-0.247-1.309c0-0.523,0.327-1.133,0.987-1.83c0.654-0.695,1.561-1.396,2.715-2.094
		c0.656-0.523,1.439-1.002,2.342-1.438c0.904-0.436,1.768-0.916,2.592-1.438c1.316-0.527,2.592-1.002,3.827-1.441
		c1.233-0.432,2.257-0.654,3.083-0.654c3.616,0,6.168,0.262,7.651,0.787c1.479,0.521,2.795,2.006,3.946,4.447
		c0.164,0.521,0.371,1.088,0.617,1.697c0.246,0.613,0.533,1.354,0.863,2.223c0.328,0.877,1.027,2.184,2.1,3.926
		c1.064,1.742,2.344,3.574,3.824,5.49c0.328,0.352,0.615,0.699,0.863,1.047c0.247,0.35,0.531,0.699,0.864,1.045
		c0.161,0.176,0.282,0.354,0.37,0.525c0.079,0.176,0.203,0.35,0.369,0.521c18.59,23.717,33.764,42.418,45.529,56.104
		c11.758,13.689,22.824,25.85,33.189,36.484c1.48,1.398,2.961,2.836,4.441,4.316c1.479,1.482,2.963,2.922,4.442,4.314
		c3.288,3.139,6.619,6.32,9.993,9.547c3.371,3.229,6.869,6.582,10.488,10.07c1.48,1.396,2.961,2.398,4.44,3.006
		c1.479,0.613,2.797,1.092,3.948,1.441c1.148,0.35,2.057,0.781,2.715,1.307c0.655,0.523,0.987,1.658,0.987,3.4
		c0,0.521-0.332,1.307-0.987,2.352c-0.658,1.047-1.48,2.094-2.468,3.139c-0.493,0.699-1.03,1.309-1.606,1.83
		c-0.574,0.525-1.193,1.047-1.849,1.57c-0.987,0.699-1.935,1.307-2.836,1.832c-0.908,0.523-1.69,0.783-2.345,0.783l-7.402,0.262
		c-0.987-0.174-1.729-0.566-2.223-1.176c-0.493-0.613-0.904-1.348-1.232-2.225c-0.168,0-0.247-0.084-0.247-0.26
		c-0.167-0.35-0.333-0.654-0.495-0.916c-0.165-0.262-0.332-0.564-0.492-0.914c-2.633-4.01-6.746-9.154-12.34-15.432
		s-12.504-13.947-20.727-23.018H1386.871z M1401.181,533.627l-16.285,29.816c-2.139,3.838-3.54,6.408-4.195,7.717
		c-0.658,1.307-0.986,2.398-0.986,3.268c0,1.398,1.233,2.27,3.703,2.615c2.466,0.354,9.536,0.523,21.221,0.523
		c12.993,0,21.837-0.217,26.526-0.654c4.689-0.434,7.609-0.914,8.759-1.438L1401.181,533.627z"/>
	<g>
		<path fill="#706F6F" d="M79.649,687.063h-6.761v-8.111h6.761V687.063z M79.276,747.166h-5.981V697.08h5.981V747.166z"/>
		<path fill="#706F6F" d="M122.631,747.166h-5.981v-28.057c0-6.502-0.656-10.809-1.972-12.922c-1.312-2.113-3.476-3.17-6.488-3.17
			c-3.555,0-7.326,2.158-11.314,6.473v37.676h-5.979V697.08h5.979v6.027c4.507-4.963,8.959-7.445,13.353-7.445
			c3.966,0,7.022,1.617,9.175,4.852c2.151,3.236,3.229,7.912,3.229,14.029V747.166z"/>
		<path fill="#706F6F" d="M168.394,748.361c-4.802,0-9.31-1.375-13.522-4.123v-9.041h0.238c4.574,4.432,9.117,6.648,13.625,6.648
			c6.319,0,9.479-2.6,9.479-7.801c0-2.039-0.42-3.619-1.257-4.742c-0.839-1.123-2.581-2.084-5.233-2.881
			c-2.218-0.561-4.768-1.285-7.643-2.174c-2.879-0.885-5.104-2.443-6.678-4.674c-1.575-2.232-2.362-5.092-2.362-8.578
			c0-4.432,1.381-8.059,4.147-10.881c2.763-2.822,6.454-4.232,11.074-4.232c4.758,0,8.937,1.213,12.537,3.635v8.6h-0.237
			c-3.964-3.811-8.166-5.719-12.606-5.719c-2.74,0-4.902,0.658-6.488,1.975c-1.585,1.313-2.378,3.141-2.378,5.471
			c0,2.07,0.426,3.652,1.274,4.744c0.849,1.094,2.543,2.055,5.08,2.881l7.509,2.127c3.103,0.887,5.437,2.445,7,4.676
			c1.562,2.23,2.343,5.119,2.343,8.666c0,4.58-1.438,8.295-4.316,11.146C177.104,746.936,173.24,748.361,168.394,748.361z"/>
		<path fill="#706F6F" d="M223.675,747.166h-5.979v-6.029c-4.646,4.936-9.096,7.4-13.353,7.4c-4.01,0-7.078-1.617-9.208-4.852
			s-3.195-7.869-3.195-13.896V697.08h5.979v28.145c0,6.443,0.664,10.713,1.989,12.811c1.325,2.1,3.482,3.145,6.471,3.145
			c3.535,0,7.307-2.141,11.316-6.424V697.08h5.979V747.166z"/>
		<path fill="#706F6F" d="M241.205,744.283v21.363h-5.979V697.08h5.979v5.541c4.372-4.641,8.62-6.959,12.742-6.959
			c4.528,0,8.13,2.297,10.804,6.893c2.673,4.594,4.01,10.91,4.01,18.947c0,7.889-1.621,14.303-4.86,19.236
			c-3.238,4.934-7.246,7.4-12.027,7.4C248.228,748.139,244.672,746.854,241.205,744.283z M241.205,708.959v29.254
			c3.397,1.979,6.547,2.967,9.447,2.967c3.735,0,6.658-1.689,8.764-5.074c2.106-3.381,3.161-8.164,3.161-14.338
			c0-12.5-3.455-18.75-10.363-18.75C248.544,703.018,244.875,704.998,241.205,708.959z"/>
		<path fill="#706F6F" d="M283.539,744.283v21.363h-5.979V697.08h5.979v5.541c4.372-4.641,8.619-6.959,12.742-6.959
			c4.529,0,8.131,2.297,10.805,6.893c2.673,4.594,4.01,10.91,4.01,18.947c0,7.889-1.621,14.303-4.859,19.236
			c-3.239,4.934-7.249,7.4-12.027,7.4C290.562,748.139,287.006,746.854,283.539,744.283z M283.539,708.959v29.254
			c3.398,1.979,6.546,2.967,9.446,2.967c3.737,0,6.66-1.689,8.765-5.074c2.107-3.381,3.16-8.164,3.16-14.338
			c0-12.5-3.455-18.75-10.361-18.75C290.878,703.018,287.21,704.998,283.539,708.959z"/>
		<path fill="#706F6F" d="M334.774,748.537c-5.457,0-9.771-2.354-12.944-7.068c-3.171-4.713-4.754-11.146-4.754-19.303
			c0-8.154,1.596-14.609,4.788-19.369c3.195-4.756,7.499-7.135,12.91-7.135c5.417,0,9.719,2.363,12.912,7.09
			c3.194,4.729,4.79,11.199,4.79,19.414s-1.59,14.662-4.773,19.348C344.522,746.197,340.212,748.537,334.774,748.537z
			 M334.774,702.311c-3.691,0-6.532,1.697-8.526,5.098c-1.993,3.396-2.99,8.318-2.99,14.758c0,6.354,0.997,11.229,2.99,14.627
			c1.994,3.398,4.835,5.098,8.526,5.098c3.693,0,6.536-1.699,8.53-5.098c1.992-3.398,2.99-8.273,2.99-14.627
			C346.295,708.93,342.455,702.311,334.774,702.311z"/>
		<path fill="#706F6F" d="M361.207,747.166V697.08h5.981v7.713c4.801-5.143,9.229-7.713,13.284-7.713
			c1.428,0,2.865,0.146,4.314,0.441v8.158h-0.238c-1.88-0.592-3.783-0.887-5.707-0.887c-3.852,0-7.735,2.127-11.653,6.383v35.99
			H361.207z"/>
		<path fill="#706F6F" d="M403.068,748.139c-7.93,0-11.894-5.688-11.894-17.063v-27.613h-4.382v-6.383h4.418v-14.406h5.945v14.406
			h13.455v6.383h-13.455v23.18c0,5.26,0.277,8.666,0.832,10.219c0.555,1.549,1.398,2.688,2.531,3.412
			c1.133,0.723,2.581,1.084,4.35,1.084c1.676,0,3.521-0.531,5.537-1.594h0.205v7.09C407.914,747.711,405.4,748.139,403.068,748.139z
			"/>
		<path fill="#706F6F" d="M455.831,748.537c-5.459,0-9.772-2.354-12.945-7.068c-3.17-4.713-4.755-11.146-4.755-19.303
			c0-8.154,1.598-14.609,4.79-19.369c3.193-4.756,7.497-7.135,12.91-7.135c5.415,0,9.719,2.363,12.91,7.09
			c3.195,4.729,4.792,11.199,4.792,19.414s-1.59,14.662-4.773,19.348C465.577,746.197,461.268,748.537,455.831,748.537z
			 M455.831,702.311c-3.693,0-6.534,1.697-8.526,5.098c-1.995,3.396-2.992,8.318-2.992,14.758c0,6.354,0.997,11.229,2.992,14.627
			c1.992,3.398,4.833,5.098,8.526,5.098s6.536-1.699,8.528-5.098c1.994-3.398,2.99-8.273,2.99-14.627
			C467.35,708.93,463.51,702.311,455.831,702.311z"/>
		<path fill="#706F6F" d="M502.685,684.979h-0.204c-2.084-0.885-3.928-1.328-5.537-1.328c-3.057,0-5.231,0.932-6.523,2.793
			c-1.292,1.859-1.937,4.918-1.937,9.176v1.461h11.755v6.383h-11.553v43.703h-5.978v-43.703h-4.382v-6.383h4.382v-1.949
			c0-5.881,1.133-10.389,3.397-13.52c2.264-3.131,5.503-4.699,9.717-4.699c2.061,0,4.35,0.297,6.862,0.889V684.979z"/>
		<path fill="#706F6F" d="M541.385,748.139c-7.93,0-11.893-5.688-11.893-17.063v-27.613h-4.383v-6.383h4.418v-14.406h5.944v14.406
			h13.456v6.383h-13.456v23.18c0,5.26,0.278,8.666,0.833,10.219c0.555,1.549,1.398,2.688,2.531,3.412
			c1.133,0.723,2.581,1.084,4.35,1.084c1.676,0,3.521-0.531,5.538-1.594h0.204v7.09
			C546.231,747.711,543.715,748.139,541.385,748.139z"/>
		<path fill="#706F6F" d="M587.355,747.166h-5.981v-28.012c0-6.531-0.655-10.854-1.972-12.967c-1.312-2.113-3.476-3.17-6.488-3.17
			c-3.533,0-7.305,2.145-11.314,6.428v37.721h-5.979v-69.764h5.979v25.66c4.486-4.934,8.936-7.4,13.353-7.4
			c3.966,0,7.022,1.617,9.174,4.852c2.152,3.236,3.229,7.912,3.229,14.029V747.166z"/>
		<path fill="#706F6F" d="M615.962,748.316c-6.388,0-11.342-2.252-14.863-6.758c-3.522-4.506-5.284-10.883-5.284-19.125
			c0-8.186,1.687-14.693,5.063-19.525c3.373-4.83,7.849-7.246,13.42-7.246c5.075,0,9.008,1.98,11.805,5.939
			c2.799,3.961,4.198,9.604,4.198,16.93v4.301h-28.372c0,6.027,1.253,10.658,3.757,13.893c2.502,3.238,5.962,4.855,10.379,4.855
			c4.394,0,8.789-1.996,13.184-5.984h0.271v8.467C624.062,746.898,619.541,748.316,615.962,748.316z M601.929,716.938h22.527
			c-0.183-9.959-3.682-14.938-10.5-14.938c-3.441,0-6.229,1.328-8.356,3.988C603.471,708.646,602.245,712.299,601.929,716.938z"/>
		<path fill="#706F6F" d="M684.321,748.361c-7.657,0-13.653-3.014-17.991-9.043c-4.338-6.027-6.506-14.521-6.506-25.484
			c0-10.756,2.203-19.221,6.609-25.398c4.404-6.174,10.379-9.262,17.922-9.262c5.413,0,11.053,1.994,16.92,5.982v9.707h-0.477
			c-5.322-5.82-10.939-8.732-16.85-8.732c-5.393,0-9.663,2.447-12.811,7.338c-3.148,4.889-4.724,11.678-4.724,20.365
			c0,8.629,1.604,15.373,4.808,20.234c3.205,4.859,7.47,7.289,12.791,7.289c2.877,0,5.619-0.598,8.224-1.795
			c2.606-1.195,5.459-3.537,8.562-7.023h0.477v9.748c-4.35,2.691-7.73,4.375-10.143,5.055
			C688.723,748.021,686.449,748.361,684.321,748.361z"/>
		<path fill="#706F6F" d="M740.688,747.166h-5.979v-6.029c-4.645,4.936-9.097,7.4-13.354,7.4c-4.01,0-7.078-1.617-9.208-4.852
			s-3.194-7.869-3.194-13.896V697.08h5.979v28.145c0,6.443,0.663,10.713,1.988,12.811c1.325,2.1,3.482,3.145,6.472,3.145
			c3.535,0,7.307-2.141,11.316-6.424V697.08h5.979V747.166z"/>
		<path fill="#706F6F" d="M763.077,748.361c-4.803,0-9.309-1.375-13.522-4.123v-9.041h0.238c4.576,4.432,9.118,6.648,13.624,6.648
			c6.321,0,9.479-2.6,9.479-7.801c0-2.039-0.421-3.619-1.256-4.742c-0.84-1.123-2.582-2.084-5.234-2.881
			c-2.219-0.561-4.769-1.285-7.644-2.174c-2.878-0.885-5.102-2.443-6.677-4.674c-1.575-2.232-2.361-5.092-2.361-8.578
			c0-4.432,1.381-8.059,4.146-10.881c2.763-2.822,6.456-4.232,11.076-4.232c4.757,0,8.937,1.213,12.538,3.635v8.6h-0.238
			c-3.966-3.811-8.166-5.719-12.607-5.719c-2.738,0-4.901,0.658-6.486,1.975c-1.588,1.313-2.38,3.141-2.38,5.471
			c0,2.07,0.425,3.652,1.274,4.744c0.849,1.094,2.543,2.055,5.081,2.881l7.507,2.127c3.105,0.887,5.438,2.445,7,4.676
			s2.343,5.119,2.343,8.666c0,4.58-1.438,8.295-4.315,11.146C771.787,746.936,767.926,748.361,763.077,748.361z"/>
		<path fill="#706F6F" d="M799.026,748.139c-7.93,0-11.894-5.688-11.894-17.063v-27.613h-4.382v-6.383h4.418v-14.406h5.944v14.406
			h13.456v6.383h-13.456v23.18c0,5.26,0.278,8.666,0.833,10.219c0.555,1.549,1.398,2.688,2.531,3.412
			c1.133,0.723,2.581,1.084,4.351,1.084c1.675,0,3.52-0.531,5.537-1.594h0.204v7.09
			C803.873,747.711,801.356,748.139,799.026,748.139z"/>
		<path fill="#706F6F" d="M828.142,748.537c-5.459,0-9.773-2.354-12.946-7.068c-3.169-4.713-4.754-11.146-4.754-19.303
			c0-8.154,1.597-14.609,4.788-19.369c3.194-4.756,7.499-7.135,12.912-7.135c5.415,0,9.719,2.363,12.91,7.09
			c3.194,4.729,4.792,11.199,4.792,19.414s-1.591,14.662-4.773,19.348C837.888,746.197,833.578,748.537,828.142,748.537z
			 M828.142,702.311c-3.693,0-6.534,1.697-8.528,5.098c-1.993,3.396-2.99,8.318-2.99,14.758c0,6.354,0.997,11.229,2.99,14.627
			c1.994,3.398,4.835,5.098,8.528,5.098c3.691,0,6.536-1.699,8.528-5.098c1.991-3.398,2.99-8.273,2.99-14.627
			C839.66,708.93,835.82,702.311,828.142,702.311z"/>
		<path fill="#706F6F" d="M879.379,747.166v-5.541c-4.372,4.609-8.607,6.912-12.708,6.912c-4.53,0-8.137-2.318-10.821-6.957
			c-2.684-4.641-4.026-10.977-4.026-19.014c0-7.949,1.62-14.42,4.86-19.416c3.237-4.992,7.235-7.488,11.993-7.488
			c3.329,0,6.896,1.314,10.702,3.943v-22.203h5.979v69.764H879.379z M879.379,735.285v-29.65c-3.354-2.01-6.49-3.014-9.411-3.014
			c-3.763,0-6.694,1.719-8.802,5.164c-2.105,3.441-3.157,8.279-3.157,14.516c0,12.588,3.452,18.879,10.36,18.879
			C872.244,741.18,875.912,739.217,879.379,735.285z"/>
		<path fill="#706F6F" d="M929.424,697.08l-22.525,68.566h-6.388l7.137-20.654l-15.46-47.912h6.489l12.231,38.117l12.266-38.117
			H929.424z"/>
		<path fill="#706F6F" d="M974.818,748.537c-5.461,0-9.775-2.354-12.947-7.068c-3.17-4.713-4.756-11.146-4.756-19.303
			c0-8.154,1.6-14.609,4.791-19.369c3.194-4.756,7.498-7.135,12.912-7.135c5.412,0,9.717,2.363,12.908,7.09
			c3.194,4.729,4.793,11.199,4.793,19.414s-1.592,14.662-4.773,19.348C984.563,746.197,980.254,748.537,974.818,748.537z
			 M974.818,702.311c-3.695,0-6.537,1.697-8.529,5.098c-1.994,3.396-2.99,8.318-2.99,14.758c0,6.354,0.996,11.229,2.99,14.627
			c1.992,3.398,4.834,5.098,8.529,5.098c3.691,0,6.535-1.699,8.525-5.098c1.994-3.398,2.99-8.273,2.99-14.627
			C986.334,708.93,982.496,702.311,974.818,702.311z"/>
		<path fill="#706F6F" d="M1021.671,684.979h-0.204c-2.084-0.885-3.93-1.328-5.539-1.328c-3.057,0-5.23,0.932-6.521,2.793
			c-1.293,1.859-1.937,4.918-1.937,9.176v1.461h11.755v6.383h-11.553v43.703h-5.979v-43.703h-4.383v-6.383h4.383v-1.949
			c0-5.881,1.133-10.389,3.398-13.52c2.264-3.131,5.503-4.699,9.715-4.699c2.063,0,4.35,0.297,6.864,0.889V684.979z"/>
		<path fill="#706F6F" d="M1060.369,748.139c-7.928,0-11.891-5.688-11.891-17.063v-27.613h-4.383v-6.383h4.416v-14.406h5.945v14.406
			h13.455v6.383h-13.455v23.18c0,5.26,0.277,8.666,0.832,10.219c0.555,1.549,1.398,2.688,2.531,3.412
			c1.134,0.723,2.583,1.084,4.351,1.084c1.675,0,3.521-0.531,5.537-1.594h0.204v7.09
			C1065.218,747.711,1062.701,748.139,1060.369,748.139z"/>
		<path fill="#706F6F" d="M1106.338,747.166h-5.98v-28.012c0-6.531-0.656-10.854-1.971-12.967c-1.313-2.113-3.477-3.17-6.49-3.17
			c-3.533,0-7.303,2.145-11.314,6.428v37.721h-5.978v-69.764h5.978v25.66c4.486-4.934,8.938-7.4,13.354-7.4
			c3.964,0,7.022,1.617,9.173,4.852c2.152,3.236,3.229,7.912,3.229,14.029V747.166z"/>
		<path fill="#706F6F" d="M1134.945,748.316c-6.387,0-11.342-2.252-14.861-6.758c-3.525-4.506-5.284-10.883-5.284-19.125
			c0-8.186,1.685-14.693,5.062-19.525c3.373-4.83,7.847-7.246,13.42-7.246c5.074,0,9.01,1.98,11.807,5.939
			c2.796,3.961,4.196,9.604,4.196,16.93v4.301h-28.37c0,6.027,1.252,10.658,3.754,13.893c2.502,3.238,5.963,4.855,10.379,4.855
			c4.396,0,8.79-1.996,13.184-5.984h0.271v8.467C1143.044,746.898,1138.524,748.316,1134.945,748.316z M1120.914,716.938h22.526
			c-0.184-9.959-3.681-14.938-10.499-14.938c-3.443,0-6.23,1.328-8.358,3.988C1122.455,708.646,1121.23,712.299,1120.914,716.938z"
			/>
		<path fill="#706F6F" d="M1221.074,747.166h-6.319v-33.021h-26.501v33.021h-6.318v-66.795h6.318v26.639h26.501v-26.639h6.319
			V747.166z"/>
		<path fill="#706F6F" d="M1248.018,748.537c-5.457,0-9.771-2.354-12.943-7.068c-3.17-4.713-4.756-11.146-4.756-19.303
			c0-8.154,1.596-14.609,4.789-19.369c3.195-4.756,7.498-7.135,12.91-7.135c5.417,0,9.719,2.363,12.912,7.09
			c3.195,4.729,4.791,11.199,4.791,19.414s-1.591,14.662-4.773,19.348C1257.766,746.197,1253.455,748.537,1248.018,748.537z
			 M1248.018,702.311c-3.691,0-6.532,1.697-8.525,5.098c-1.994,3.396-2.991,8.318-2.991,14.758c0,6.354,0.997,11.229,2.991,14.627
			c1.993,3.398,4.834,5.098,8.525,5.098c3.693,0,6.536-1.699,8.53-5.098c1.991-3.398,2.99-8.273,2.99-14.627
			C1259.538,708.93,1255.697,702.311,1248.018,702.311z"/>
		<path fill="#706F6F" d="M1280.5,747.166h-5.981v-69.764h5.981V747.166z"/>
		<path fill="#706F6F" d="M1324.635,697.08l-22.526,68.566h-6.386l7.135-20.654l-15.461-47.912h6.49l12.229,38.117l12.265-38.117
			H1324.635z"/>
		<path fill="#706F6F" d="M1387.56,747.166h-31.905v-66.795h6.318v59.613h25.587V747.166z"/>
		<path fill="#706F6F" d="M1417.049,747.166v-5.586c-3.194,3.014-5.821,4.928-7.883,5.74c-2.063,0.811-4.158,1.217-6.284,1.217
			c-3.419,0-6.264-1.477-8.53-4.43c-2.262-2.955-3.396-6.709-3.396-11.26c0-5.818,1.682-10.199,5.045-13.141
			c3.363-2.939,10.381-4.689,21.049-5.254v-1.506c0-3.486-0.793-6.064-2.378-7.734c-1.585-1.668-4.372-2.504-8.359-2.504
			c-3.511,0-7.417,1.182-11.722,3.545h-0.271v-8.109c4.236-1.508,8.313-2.262,12.231-2.262c5.685,0,9.848,1.383,12.487,4.145
			c2.639,2.764,3.956,7.055,3.956,12.875v34.264H1417.049z M1417.049,735.242v-14.539c-8.447,0.504-13.878,1.725-16.29,3.656
			c-2.412,1.936-3.62,4.605-3.62,8c0,6,2.787,8.998,8.359,8.998C1409.281,741.357,1413.13,739.318,1417.049,735.242z"/>
		<path fill="#706F6F" d="M1465.975,747.166h-5.981v-28.057c0-6.502-0.653-10.809-1.97-12.922c-1.313-2.113-3.477-3.17-6.488-3.17
			c-3.555,0-7.328,2.158-11.314,6.473v37.676h-5.979V697.08h5.979v6.027c4.506-4.963,8.959-7.445,13.353-7.445
			c3.964,0,7.022,1.617,9.175,4.852c2.151,3.236,3.227,7.912,3.227,14.029V747.166z"/>
		<path fill="#706F6F" d="M1502.059,747.166v-5.541c-4.373,4.609-8.607,6.912-12.707,6.912c-4.531,0-8.138-2.318-10.822-6.957
			c-2.685-4.641-4.027-10.977-4.027-19.014c0-7.949,1.62-14.42,4.861-19.416c3.238-4.992,7.236-7.488,11.992-7.488
			c3.33,0,6.896,1.314,10.703,3.943v-22.203h5.979v69.764H1502.059z M1502.059,735.285v-29.65c-3.354-2.01-6.49-3.014-9.413-3.014
			c-3.76,0-6.692,1.719-8.8,5.164c-2.104,3.441-3.159,8.279-3.159,14.516c0,12.588,3.453,18.879,10.363,18.879
			C1494.924,741.18,1498.593,739.217,1502.059,735.285z"/>
	</g>
</g>
</svg>
